999
DXF created by Inkscape
  0
SECTION
  2
HEADER
  9
$ACADVER
  1
AC1014
  9
$HANDSEED
  5
FFFF
  9
$MEASUREMENT
 70
     1
  0
ENDSEC
  0
SECTION
  2
TABLES
  0
TABLE
  2
VPORT
  5
8
330
0
100
AcDbSymbolTable
 70
     4
  0
VPORT
  5
2E
330
8
100
AcDbSymbolTableRecord
100
AcDbViewportTableRecord
  2
*ACTIVE
 70
     0
 10
0.0
 20
0.0
 11
1.0
 21
1.0
 12
210.0
 22
148.5
 13
0.0
 23
0.0
 14
10.0
 24
10.0
 15
10.0
 25
10.0
 16
0.0
 26
0.0
 36
1.0
 17
0.0
 27
0.0
 37
0.0
 40
341.0
 41
1.24
 42
50.0
 43
0.0
 44
0.0
 50
0.0
 51
0.0
 71
     0
 72
   100
 73
     1
 74
     3
 75
     0
 76
     0
 77
     0
 78
     0
  0
ENDTAB
  0
TABLE
  2
LTYPE
  5
5
330
0
100
AcDbSymbolTable
 70
     1
  0
LTYPE
  5
14
330
5
100
AcDbSymbolTableRecord
100
AcDbLinetypeTableRecord
  2
BYBLOCK
 70
     0
  3

 72
    65
 73
     0
 40
0.0
  0
LTYPE
  5
15
330
5
100
AcDbSymbolTableRecord
100
AcDbLinetypeTableRecord
  2
BYLAYER
 70
     0
  3

 72
    65
 73
     0
 40
0.0
  0
LTYPE
  5
16
330
5
100
AcDbSymbolTableRecord
100
AcDbLinetypeTableRecord
  2
CONTINUOUS
 70
     0
  3
Solid line
 72
    65
 73
     0
 40
0.0
  0
ENDTAB
  0
TABLE
  2
LAYER
  5
2
100
AcDbSymbolTable
 70
6
  0
LAYER
  5
50
100
AcDbSymbolTableRecord
100
AcDbLayerTableRecord
  2
0
 70
0
  6
CONTINUOUS
  0
LAYER
  5
51
100
AcDbSymbolTableRecord
100
AcDbLayerTableRecord
  2
line1
 70
0
  6
CONTINUOUS
  0
LAYER
  5
52
100
AcDbSymbolTableRecord
100
AcDbLayerTableRecord
  2
line2
 70
0
  6
CONTINUOUS
  0
LAYER
  5
53
100
AcDbSymbolTableRecord
100
AcDbLayerTableRecord
  2
line3
 70
0
  6
CONTINUOUS
  0
LAYER
  5
54
100
AcDbSymbolTableRecord
100
AcDbLayerTableRecord
  2
line4
 70
0
  6
CONTINUOUS
  0
LAYER
  5
55
100
AcDbSymbolTableRecord
100
AcDbLayerTableRecord
  2
line5
 70
0
  6
CONTINUOUS
  0
ENDTAB
  0
TABLE
  2
STYLE
  5
3
330
0
100
AcDbSymbolTable
 70
     1
  0
STYLE
  5
11
330
3
100
AcDbSymbolTableRecord
100
AcDbTextStyleTableRecord
  2
STANDARD
 70
     0
 40
0.0
 41
1.0
 50
0.0
 71
     0
 42
2.5
  3
txt
  4

  0
ENDTAB
  0
TABLE
  2
VIEW
  5
6
330
0
100
AcDbSymbolTable
 70
     0
  0
ENDTAB
  0
TABLE
  2
UCS
  5
7
330
0
100
AcDbSymbolTable
 70
     0
  0
ENDTAB
  0
TABLE
  2
APPID
  5
9
330
0
100
AcDbSymbolTable
 70
     2
  0
APPID
  5
12
330
9
100
AcDbSymbolTableRecord
100
AcDbRegAppTableRecord
  2
ACAD
 70
     0
  0
ENDTAB
  0
TABLE
  2
DIMSTYLE
  5
A
330
0
100
AcDbSymbolTable
 70
     1
  0
DIMSTYLE
105
27
330
A
100
AcDbSymbolTableRecord
100
AcDbDimStyleTableRecord
  2
ISO-25
 70
     0
  3

  4

  5

  6

  7

 40
1.0
 41
2.5
 42
0.625
 43
3.75
 44
1.25
 45
0.0
 46
0.0
 47
0.0
 48
0.0
140
2.5
141
2.5
142
0.0
143
0.03937007874016
144
1.0
145
0.0
146
1.0
147
0.625
 71
     0
 72
     0
 73
     0
 74
     0
 75
     0
 76
     0
 77
     1
 78
     8
170
     0
171
     3
172
     1
173
     0
174
     0
175
     0
176
     0
177
     0
178
     0
270
     2
271
     2
272
     2
273
     2
274
     3
340
11
275
     0
280
     0
281
     0
282
     0
283
     0
284
     8
285
     0
286
     0
287
     3
288
     0
  0
ENDTAB
  0
TABLE
  2
BLOCK_RECORD
  5
1
330
0
100
AcDbSymbolTable
 70
     1
  0
BLOCK_RECORD
  5
1F
330
1
100
AcDbSymbolTableRecord
100
AcDbBlockTableRecord
  2
*MODEL_SPACE
  0
BLOCK_RECORD
  5
1B
330
1
100
AcDbSymbolTableRecord
100
AcDbBlockTableRecord
  2
*PAPER_SPACE
  0
ENDTAB
  0
ENDSEC
  0
SECTION
  2
BLOCKS
  0
BLOCK
  5
20
330
1F
100
AcDbEntity
  8
0
100
AcDbBlockBegin
  2
*MODEL_SPACE
 70
     0
 10
0.0
 20
0.0
 30
0.0
  3
*MODEL_SPACE
  1

  0
ENDBLK
  5
21
330
1F
100
AcDbEntity
  8
0
100
AcDbBlockEnd
  0
BLOCK
  5
1C
330
1B
100
AcDbEntity
 67
     1
  8
0
100
AcDbBlockBegin
  2
*PAPER_SPACE
  1

  0
ENDBLK
  5
1D
330
1B
100
AcDbEntity
 67
     1
  8
0
100
AcDbBlockEnd
  0
ENDSEC
  0
SECTION
  2
ENTITIES
  0
LWPOLYLINE
  5
100
100
AcDbEntity
  8
line1
 62
7
100
AcDbPolyline
 90
57
 70
0
 10
4.061099
 20
65.823655
 30
0.0
 10
5.445730
 20
65.739367
 30
0.0
 10
6.211327
 20
65.649239
 30
0.0
 10
6.705568
 20
65.477109
 30
0.0
 10
7.276136
 20
65.146808
 30
0.0
 10
8.650085
 20
63.374302
 30
0.0
 10
9.543630
 20
60.575457
 30
0.0
 10
9.980278
 20
57.608706
 30
0.0
 10
9.983535
 20
55.332482
 30
0.0
 10
9.830699
 20
54.358984
 30
0.0
 10
9.694821
 20
53.489873
 30
0.0
 10
9.660997
 20
52.611397
 30
0.0
 10
9.814322
 20
51.609810
 30
0.0
 10
10.437635
 20
50.576145
 30
0.0
 10
11.359348
 20
49.928282
 30
0.0
 10
12.227702
 20
49.063604
 30
0.0
 10
12.690934
 20
47.379496
 30
0.0
 10
12.580417
 20
45.943784
 30
0.0
 10
12.195223
 20
44.482564
 30
0.0
 10
11.719459
 20
43.031502
 30
0.0
 10
11.337234
 20
41.626272
 30
0.0
 10
11.301101
 20
41.014287
 30
0.0
 10
11.394480
 20
40.423895
 30
0.0
 10
11.543842
 20
39.842450
 30
0.0
 10
11.675659
 20
39.257299
 30
0.0
 10
11.770582
 20
37.590999
 30
0.0
 10
11.681432
 20
35.494210
 30
0.0
 10
11.504789
 20
33.375325
 30
0.0
 10
11.337234
 20
31.642737
 30
0.0
 10
10.898311
 20
26.775143
 30
0.0
 10
10.465267
 20
21.906835
 30
0.0
 10
10.002873
 20
17.041618
 30
0.0
 10
9.475897
 20
12.183309
 30
0.0
 10
9.109448
 20
11.364328
 30
0.0
 10
8.372365
 20
10.441377
 30
0.0
 10
7.552502
 20
9.543346
 30
0.0
 10
6.937710
 20
8.799041
 30
0.0
 10
5.749677
 20
6.825969
 30
0.0
 10
5.387256
 20
5.378762
 30
0.0
 10
5.842364
 20
3.949588
 30
0.0
 10
7.106923
 20
2.030562
 30
0.0
 10
7.310270
 20
1.564811
 30
0.0
 10
7.396423
 20
1.032427
 30
0.0
 10
7.464735
 20
0.491491
 30
0.0
 10
7.614560
 20
0.000001
 30
0.0
 10
5.710920
 20
-0.042304
 30
0.0
 10
3.807280
 20
-0.084609
 30
0.0
 10
1.903639
 20
-0.126914
 30
0.0
 10
-0.000001
 20
-0.169219
 30
0.0
 10
-0.000001
 20
16.328998
 30
0.0
 10
-0.000001
 20
32.827218
 30
0.0
 10
-0.000001
 20
49.325435
 30
0.0
 10
-0.000001
 20
65.823655
 30
0.0
 10
1.015274
 20
65.823655
 30
0.0
 10
2.030549
 20
65.823655
 30
0.0
 10
3.045824
 20
65.823655
 30
0.0
 10
4.061099
 20
65.823655
 30
0.0
  0
LWPOLYLINE
  5
101
100
AcDbEntity
  8
line2
 62
7
100
AcDbPolyline
 90
45
 70
0
 10
13.536997
 20
74.115068
 30
0.0
 10
13.040030
 20
71.341472
 30
0.0
 10
12.242142
 20
69.244271
 30
0.0
 10
11.287923
 20
67.171188
 30
0.0
 10
10.321960
 20
64.469957
 30
0.0
 10
10.482356
 20
63.552918
 30
0.0
 10
11.075783
 20
62.157651
 30
0.0
 10
11.842239
 20
60.818653
 30
0.0
 10
12.521722
 20
60.070431
 30
0.0
 10
14.619450
 20
58.326608
 30
0.0
 10
16.594559
 20
55.348831
 30
0.0
 10
17.802343
 20
51.601422
 30
0.0
 10
17.598096
 20
47.548708
 30
0.0
 10
16.762120
 20
44.787192
 30
0.0
 10
16.060647
 20
42.601903
 30
0.0
 10
15.577959
 20
40.690251
 30
0.0
 10
15.398334
 20
38.749660
 30
0.0
 10
15.693148
 20
37.644116
 30
0.0
 10
16.381919
 20
35.847913
 30
0.0
 10
17.171141
 20
34.106582
 30
0.0
 10
17.767309
 20
33.165651
 30
0.0
 10
18.625096
 20
31.783470
 30
0.0
 10
18.528907
 20
30.049841
 30
0.0
 10
18.094222
 20
28.224295
 30
0.0
 10
17.936522
 20
26.566364
 30
0.0
 10
18.257159
 20
25.218019
 30
0.0
 10
18.713137
 20
23.809637
 30
0.0
 10
19.034626
 20
22.383613
 30
0.0
 10
18.951796
 20
20.982351
 30
0.0
 10
17.388479
 20
16.117317
 30
0.0
 10
15.507633
 20
10.290078
 30
0.0
 10
14.248987
 20
4.647976
 30
0.0
 10
14.552272
 20
0.338442
 30
0.0
 10
11.041114
 20
0.253832
 30
0.0
 10
7.529955
 20
0.169222
 30
0.0
 10
4.018796
 20
0.084612
 30
0.0
 10
0.507637
 20
0.000001
 30
0.0
 10
0.507637
 20
18.528768
 30
0.0
 10
0.507637
 20
37.057535
 30
0.0
 10
0.507637
 20
55.586301
 30
0.0
 10
0.507637
 20
74.115068
 30
0.0
 10
3.764977
 20
74.115068
 30
0.0
 10
7.022317
 20
74.115068
 30
0.0
 10
10.279657
 20
74.115068
 30
0.0
 10
13.536997
 20
74.115068
 30
0.0
  0
LWPOLYLINE
  5
102
100
AcDbEntity
  8
line3
 62
7
100
AcDbPolyline
 90
33
 70
0
 10
7.952986
 20
62.608619
 30
0.0
 10
6.408849
 20
60.152191
 30
0.0
 10
4.333898
 20
55.379319
 30
0.0
 10
2.799396
 20
49.821571
 30
0.0
 10
2.876612
 20
45.010523
 30
0.0
 10
4.458172
 20
42.882181
 30
0.0
 10
6.978504
 20
41.444843
 30
0.0
 10
9.647651
 20
40.055917
 30
0.0
 10
11.675661
 20
38.072812
 30
0.0
 10
12.524300
 20
35.047819
 30
0.0
 10
12.246692
 20
31.798072
 30
0.0
 10
11.556659
 20
28.512960
 30
0.0
 10
11.168022
 20
25.381877
 30
0.0
 10
11.639626
 20
22.921091
 30
0.0
 10
12.651252
 20
20.636197
 30
0.0
 10
13.598113
 20
18.355167
 30
0.0
 10
13.875422
 20
15.905978
 30
0.0
 10
13.009765
 20
11.856298
 30
0.0
 10
11.546668
 20
7.963353
 30
0.0
 10
9.936551
 20
4.107548
 30
0.0
 10
8.629837
 20
0.169222
 30
0.0
 10
6.472377
 20
0.084612
 30
0.0
 10
4.314918
 20
0.000001
 30
0.0
 10
2.157459
 20
-0.084581
 30
0.0
 10
0.000000
 20
-0.169191
 30
0.0
 10
0.000000
 20
15.525255
 30
0.0
 10
0.000000
 20
31.219709
 30
0.0
 10
0.000000
 20
46.914165
 30
0.0
 10
0.000000
 20
62.608619
 30
0.0
 10
1.988247
 20
62.608619
 30
0.0
 10
3.976492
 20
62.608619
 30
0.0
 10
5.964739
 20
62.608619
 30
0.0
 10
7.952986
 20
62.608619
 30
0.0
  0
LWPOLYLINE
  5
103
100
AcDbEntity
  8
line4
 62
7
100
AcDbPolyline
 90
49
 70
0
 10
13.536997
 20
62.947043
 30
0.0
 10
12.195629
 20
61.623579
 30
0.0
 10
10.616122
 20
58.901351
 30
0.0
 10
9.608687
 20
55.367658
 30
0.0
 10
9.983535
 20
51.609807
 30
0.0
 10
11.103731
 20
50.175709
 30
0.0
 10
12.694728
 20
49.337729
 30
0.0
 10
14.241523
 20
48.408998
 30
0.0
 10
15.229123
 20
46.702645
 30
0.0
 10
14.958133
 20
43.926462
 30
0.0
 10
13.562211
 20
41.191588
 30
0.0
 10
12.111377
 20
38.462541
 30
0.0
 10
11.675660
 20
35.703836
 30
0.0
 10
12.151665
 20
34.622959
 30
0.0
 10
12.954996
 20
33.821188
 30
0.0
 10
13.753208
 20
33.030068
 30
0.0
 10
14.213848
 20
31.981161
 30
0.0
 10
14.165726
 20
30.310050
 30
0.0
 10
13.812136
 20
28.578422
 30
0.0
 10
13.532490
 20
26.856039
 30
0.0
 10
13.706209
 20
25.212662
 30
0.0
 10
14.166714
 20
24.531025
 30
0.0
 10
14.823084
 20
24.024498
 30
0.0
 10
15.428657
 20
23.477504
 30
0.0
 10
15.736759
 20
22.674477
 30
0.0
 10
15.552586
 20
20.718900
 30
0.0
 10
14.925731
 20
18.769893
 30
0.0
 10
14.196751
 20
16.827233
 30
0.0
 10
13.706209
 20
14.890703
 30
0.0
 10
13.764330
 20
13.251097
 30
0.0
 10
14.189470
 20
11.584433
 30
0.0
 10
14.711406
 20
9.921072
 30
0.0
 10
15.059911
 20
8.291436
 30
0.0
 10
15.233238
 20
6.301770
 30
0.0
 10
15.336187
 20
4.321416
 30
0.0
 10
15.385604
 20
2.337846
 30
0.0
 10
15.398332
 20
0.338442
 30
0.0
 10
11.548748
 20
0.253832
 30
0.0
 10
7.699166
 20
0.169222
 30
0.0
 10
3.849581
 20
0.084612
 30
0.0
 10
-0.000003
 20
0.000001
 30
0.0
 10
-0.000003
 20
15.736755
 30
0.0
 10
-0.000003
 20
31.473520
 30
0.0
 10
-0.000003
 20
47.210281
 30
0.0
 10
-0.000003
 20
62.947043
 30
0.0
 10
3.384248
 20
62.947043
 30
0.0
 10
6.768496
 20
62.947043
 30
0.0
 10
10.152744
 20
62.947043
 30
0.0
 10
13.536997
 20
62.947043
 30
0.0
  0
LWPOLYLINE
  5
104
100
AcDbEntity
  8
line5
 62
7
100
AcDbPolyline
 90
37
 70
0
 10
15.229123
 20
67.177357
 30
0.0
 10
14.292334
 20
66.194690
 30
0.0
 10
13.538112
 20
64.976441
 30
0.0
 10
12.910241
 20
63.674161
 30
0.0
 10
12.352511
 20
62.439407
 30
0.0
 10
10.335031
 20
57.546258
 30
0.0
 10
8.956836
 20
52.544719
 30
0.0
 10
8.388113
 20
47.414150
 30
0.0
 10
8.799048
 20
42.133911
 30
0.0
 10
9.528691
 20
39.807155
 30
0.0
 10
10.546294
 20
37.635746
 30
0.0
 10
11.409426
 20
35.471353
 30
0.0
 10
11.675660
 20
33.165651
 30
0.0
 10
11.339288
 20
30.851730
 30
0.0
 10
10.797907
 20
28.587473
 30
0.0
 10
10.230067
 20
26.327934
 30
0.0
 10
9.814323
 20
24.028178
 30
0.0
 10
9.568967
 20
20.769641
 30
0.0
 10
9.523617
 20
17.517806
 30
0.0
 10
9.539026
 20
14.263823
 30
0.0
 10
9.475910
 20
10.998794
 30
0.0
 10
9.116655
 20
8.088293
 30
0.0
 10
8.661436
 20
5.803083
 30
0.0
 10
8.571151
 20
3.408343
 30
0.0
 10
9.306698
 20
0.169222
 30
0.0
 10
7.022329
 20
0.084612
 30
0.0
 10
4.737960
 20
0.000001
 30
0.0
 10
2.453592
 20
-0.084609
 30
0.0
 10
0.169223
 20
-0.169219
 30
0.0
 10
0.169223
 20
16.667433
 30
0.0
 10
0.169223
 20
33.504075
 30
0.0
 10
0.169223
 20
50.340716
 30
0.0
 10
0.169223
 20
67.177357
 30
0.0
 10
3.934200
 20
67.177357
 30
0.0
 10
7.699177
 20
67.177357
 30
0.0
 10
11.464157
 20
67.177357
 30
0.0
 10
15.229123
 20
67.177357
 30
0.0
  0
ENDSEC
  0
SECTION
  2
OBJECTS
  0
DICTIONARY
  5
C
330
0
100
AcDbDictionary
  3
ACAD_GROUP
350
D
  3
ACAD_MLINESTYLE
350
17
  0
DICTIONARY
  5
D
330
C
100
AcDbDictionary
  0
DICTIONARY
  5
1A
330
C
100
AcDbDictionary
  0
DICTIONARY
  5
17
330
C
100
AcDbDictionary
  3
STANDARD
350
18
  0
DICTIONARY
  5
19
330
C
100
AcDbDictionary
  0
ENDSEC
  0
EOF
