999
DXF created by Inkscape
  0
SECTION
  2
HEADER
  9
$ACADVER
  1
AC1014
  9
$HANDSEED
  5
FFFF
  9
$MEASUREMENT
 70
     1
  0
ENDSEC
  0
SECTION
  2
TABLES
  0
TABLE
  2
VPORT
  5
8
330
0
100
AcDbSymbolTable
 70
     4
  0
VPORT
  5
2E
330
8
100
AcDbSymbolTableRecord
100
AcDbViewportTableRecord
  2
*ACTIVE
 70
     0
 10
0.0
 20
0.0
 11
1.0
 21
1.0
 12
210.0
 22
148.5
 13
0.0
 23
0.0
 14
10.0
 24
10.0
 15
10.0
 25
10.0
 16
0.0
 26
0.0
 36
1.0
 17
0.0
 27
0.0
 37
0.0
 40
341.0
 41
1.24
 42
50.0
 43
0.0
 44
0.0
 50
0.0
 51
0.0
 71
     0
 72
   100
 73
     1
 74
     3
 75
     0
 76
     0
 77
     0
 78
     0
  0
ENDTAB
  0
TABLE
  2
LTYPE
  5
5
330
0
100
AcDbSymbolTable
 70
     1
  0
LTYPE
  5
14
330
5
100
AcDbSymbolTableRecord
100
AcDbLinetypeTableRecord
  2
BYBLOCK
 70
     0
  3

 72
    65
 73
     0
 40
0.0
  0
LTYPE
  5
15
330
5
100
AcDbSymbolTableRecord
100
AcDbLinetypeTableRecord
  2
BYLAYER
 70
     0
  3

 72
    65
 73
     0
 40
0.0
  0
LTYPE
  5
16
330
5
100
AcDbSymbolTableRecord
100
AcDbLinetypeTableRecord
  2
CONTINUOUS
 70
     0
  3
Solid line
 72
    65
 73
     0
 40
0.0
  0
ENDTAB
  0
TABLE
  2
LAYER
  5
2
100
AcDbSymbolTable
 70
4
  0
LAYER
  5
50
100
AcDbSymbolTableRecord
100
AcDbLayerTableRecord
  2
0
 70
0
  6
CONTINUOUS
  0
LAYER
  5
51
100
AcDbSymbolTableRecord
100
AcDbLayerTableRecord
  2
Line1
 70
0
  6
CONTINUOUS
  0
LAYER
  5
52
100
AcDbSymbolTableRecord
100
AcDbLayerTableRecord
  2
Line2
 70
0
  6
CONTINUOUS
  0
LAYER
  5
53
100
AcDbSymbolTableRecord
100
AcDbLayerTableRecord
  2
Line3
 70
0
  6
CONTINUOUS
  0
ENDTAB
  0
TABLE
  2
STYLE
  5
3
330
0
100
AcDbSymbolTable
 70
     1
  0
STYLE
  5
11
330
3
100
AcDbSymbolTableRecord
100
AcDbTextStyleTableRecord
  2
STANDARD
 70
     0
 40
0.0
 41
1.0
 50
0.0
 71
     0
 42
2.5
  3
txt
  4

  0
ENDTAB
  0
TABLE
  2
VIEW
  5
6
330
0
100
AcDbSymbolTable
 70
     0
  0
ENDTAB
  0
TABLE
  2
UCS
  5
7
330
0
100
AcDbSymbolTable
 70
     0
  0
ENDTAB
  0
TABLE
  2
APPID
  5
9
330
0
100
AcDbSymbolTable
 70
     2
  0
APPID
  5
12
330
9
100
AcDbSymbolTableRecord
100
AcDbRegAppTableRecord
  2
ACAD
 70
     0
  0
ENDTAB
  0
TABLE
  2
DIMSTYLE
  5
A
330
0
100
AcDbSymbolTable
 70
     1
  0
DIMSTYLE
105
27
330
A
100
AcDbSymbolTableRecord
100
AcDbDimStyleTableRecord
  2
ISO-25
 70
     0
  3

  4

  5

  6

  7

 40
1.0
 41
2.5
 42
0.625
 43
3.75
 44
1.25
 45
0.0
 46
0.0
 47
0.0
 48
0.0
140
2.5
141
2.5
142
0.0
143
0.03937007874016
144
1.0
145
0.0
146
1.0
147
0.625
 71
     0
 72
     0
 73
     0
 74
     0
 75
     0
 76
     0
 77
     1
 78
     8
170
     0
171
     3
172
     1
173
     0
174
     0
175
     0
176
     0
177
     0
178
     0
270
     2
271
     2
272
     2
273
     2
274
     3
340
11
275
     0
280
     0
281
     0
282
     0
283
     0
284
     8
285
     0
286
     0
287
     3
288
     0
  0
ENDTAB
  0
TABLE
  2
BLOCK_RECORD
  5
1
330
0
100
AcDbSymbolTable
 70
     1
  0
BLOCK_RECORD
  5
1F
330
1
100
AcDbSymbolTableRecord
100
AcDbBlockTableRecord
  2
*MODEL_SPACE
  0
BLOCK_RECORD
  5
1B
330
1
100
AcDbSymbolTableRecord
100
AcDbBlockTableRecord
  2
*PAPER_SPACE
  0
ENDTAB
  0
ENDSEC
  0
SECTION
  2
BLOCKS
  0
BLOCK
  5
20
330
1F
100
AcDbEntity
  8
0
100
AcDbBlockBegin
  2
*MODEL_SPACE
 70
     0
 10
0.0
 20
0.0
 30
0.0
  3
*MODEL_SPACE
  1

  0
ENDBLK
  5
21
330
1F
100
AcDbEntity
  8
0
100
AcDbBlockEnd
  0
BLOCK
  5
1C
330
1B
100
AcDbEntity
 67
     1
  8
0
100
AcDbBlockBegin
  2
*PAPER_SPACE
  1

  0
ENDBLK
  5
1D
330
1B
100
AcDbEntity
 67
     1
  8
0
100
AcDbBlockEnd
  0
ENDSEC
  0
SECTION
  2
ENTITIES
  0
LWPOLYLINE
  5
100
100
AcDbEntity
  8
Line1
 62
7
100
AcDbPolyline
 90
33
 70
0
 10
2.856605
 20
30.504363
 30
0.0
 10
3.618605
 20
30.504363
 30
0.0
 10
4.380605
 20
30.504363
 30
0.0
 10
5.142605
 20
30.504363
 30
0.0
 10
5.904605
 20
30.504363
 30
0.0
 10
6.072245
 20
31.271443
 30
0.0
 10
6.239885
 20
32.038523
 30
0.0
 10
6.407525
 20
32.805603
 30
0.0
 10
6.575165
 20
33.572683
 30
0.0
 10
7.540365
 20
33.572683
 30
0.0
 10
8.505565
 20
33.572683
 30
0.0
 10
9.470765
 20
33.572683
 30
0.0
 10
10.435965
 20
33.572683
 30
0.0
 10
10.603605
 20
32.805603
 30
0.0
 10
10.771245
 20
32.038523
 30
0.0
 10
10.938885
 20
31.271443
 30
0.0
 10
11.106525
 20
30.504363
 30
0.0
 10
11.868525
 20
30.504363
 30
0.0
 10
12.630525
 20
30.504363
 30
0.0
 10
13.392525
 20
30.504363
 30
0.0
 10
14.154525
 20
30.504363
 30
0.0
 10
13.194405
 20
34.131483
 30
0.0
 10
12.234285
 20
37.758603
 30
0.0
 10
11.274165
 20
41.385723
 30
0.0
 10
10.314045
 20
45.012843
 30
0.0
 10
9.409805
 20
45.012843
 30
0.0
 10
8.505565
 20
45.012843
 30
0.0
 10
7.601325
 20
45.012843
 30
0.0
 10
6.697085
 20
45.012843
 30
0.0
 10
5.736965
 20
41.385723
 30
0.0
 10
4.776845
 20
37.758603
 30
0.0
 10
3.816725
 20
34.131483
 30
0.0
 10
2.856605
 20
30.504363
 30
0.0
  0
LWPOLYLINE
  5
101
100
AcDbEntity
  8
Line1
 62
7
100
AcDbPolyline
 90
17
 70
0
 10
8.485245
 20
42.493163
 30
0.0
 10
8.495405
 20
42.493163
 30
0.0
 10
8.505565
 20
42.493163
 30
0.0
 10
8.515725
 20
42.493163
 30
0.0
 10
8.525885
 20
42.493163
 30
0.0
 10
8.876405
 20
40.862483
 30
0.0
 10
9.226925
 20
39.231803
 30
0.0
 10
9.577445
 20
37.601123
 30
0.0
 10
9.927965
 20
35.970443
 30
0.0
 10
9.216765
 20
35.970443
 30
0.0
 10
8.505565
 20
35.970443
 30
0.0
 10
7.794365
 20
35.970443
 30
0.0
 10
7.083165
 20
35.970443
 30
0.0
 10
7.433685
 20
37.601123
 30
0.0
 10
7.784205
 20
39.231803
 30
0.0
 10
8.134725
 20
40.862483
 30
0.0
 10
8.485245
 20
42.493163
 30
0.0
  0
LWPOLYLINE
  5
102
100
AcDbEntity
  8
Line1
 62
7
100
AcDbPolyline
 90
33
 70
0
 10
20.163319
 20
35.970443
 30
0.0
 10
20.176216
 20
36.807570
 30
0.0
 10
20.220786
 20
37.535399
 30
0.0
 10
20.305836
 20
38.153214
 30
0.0
 10
20.440178
 20
38.660303
 30
0.0
 10
20.632623
 20
39.055947
 30
0.0
 10
20.891981
 20
39.339434
 30
0.0
 10
21.227063
 20
39.510051
 30
0.0
 10
21.646678
 20
39.567083
 30
0.0
 10
22.059586
 20
39.510051
 30
0.0
 10
22.389627
 20
39.339434
 30
0.0
 10
22.645373
 20
39.055947
 30
0.0
 10
22.835397
 20
38.660303
 30
0.0
 10
22.968271
 20
38.153214
 30
0.0
 10
23.052568
 20
37.535399
 30
0.0
 10
23.096859
 20
36.807570
 30
0.0
 10
23.109717
 20
35.970443
 30
0.0
 10
23.096859
 20
35.133315
 30
0.0
 10
23.052568
 20
34.405487
 30
0.0
 10
22.968271
 20
33.787671
 30
0.0
 10
22.835397
 20
33.280583
 30
0.0
 10
22.645373
 20
32.884938
 30
0.0
 10
22.389627
 20
32.601452
 30
0.0
 10
22.059586
 20
32.430834
 30
0.0
 10
21.646678
 20
32.373803
 30
0.0
 10
21.227062
 20
32.430834
 30
0.0
 10
20.891981
 20
32.601452
 30
0.0
 10
20.632623
 20
32.884938
 30
0.0
 10
20.440178
 20
33.280583
 30
0.0
 10
20.305836
 20
33.787671
 30
0.0
 10
20.220786
 20
34.405487
 30
0.0
 10
20.176217
 20
35.133315
 30
0.0
 10
20.163319
 20
35.970443
 30
0.0
  0
LWPOLYLINE
  5
103
100
AcDbEntity
  8
Line1
 62
7
100
AcDbPolyline
 90
89
 70
0
 10
17.359159
 20
30.504363
 30
0.0
 10
17.694439
 20
30.504363
 30
0.0
 10
18.029719
 20
30.504363
 30
0.0
 10
18.364999
 20
30.504363
 30
0.0
 10
18.700279
 20
30.504363
 30
0.0
 10
19.035559
 20
30.504363
 30
0.0
 10
19.370839
 20
30.504363
 30
0.0
 10
19.706119
 20
30.504363
 30
0.0
 10
20.041399
 20
30.504363
 30
0.0
 10
20.041399
 20
30.649143
 30
0.0
 10
20.041399
 20
30.793923
 30
0.0
 10
20.041399
 20
30.938703
 30
0.0
 10
20.041399
 20
31.083483
 30
0.0
 10
20.041399
 20
31.228263
 30
0.0
 10
20.041399
 20
31.373043
 30
0.0
 10
20.041399
 20
31.517823
 30
0.0
 10
20.041399
 20
31.662603
 30
0.0
 10
20.046479
 20
31.662603
 30
0.0
 10
20.051559
 20
31.662603
 30
0.0
 10
20.056639
 20
31.662603
 30
0.0
 10
20.061719
 20
31.662603
 30
0.0
 10
20.066799
 20
31.662603
 30
0.0
 10
20.071879
 20
31.662603
 30
0.0
 10
20.076959
 20
31.662603
 30
0.0
 10
20.082039
 20
31.662603
 30
0.0
 10
20.318576
 20
31.308908
 30
0.0
 10
20.572259
 20
31.008553
 30
0.0
 10
20.844991
 20
30.759633
 30
0.0
 10
21.138679
 20
30.560243
 30
0.0
 10
21.455227
 20
30.408478
 30
0.0
 10
21.796539
 20
30.302433
 30
0.0
 10
22.164522
 20
30.240203
 30
0.0
 10
22.561079
 20
30.219883
 30
0.0
 10
23.364393
 20
30.300291
 30
0.0
 10
24.053646
 20
30.546908
 30
0.0
 10
24.630979
 20
30.967834
 30
0.0
 10
25.098538
 20
31.571166
 30
0.0
 10
25.458464
 20
32.364995
 30
0.0
 10
25.712901
 20
33.357421
 30
0.0
 10
25.863992
 20
34.556538
 30
0.0
 10
25.913879
 20
35.970443
 30
0.0
 10
25.863992
 20
37.384351
 30
0.0
 10
25.712901
 20
38.583468
 30
0.0
 10
25.458464
 20
39.575894
 30
0.0
 10
25.098538
 20
40.369723
 30
0.0
 10
24.630980
 20
40.973052
 30
0.0
 10
24.053646
 20
41.393978
 30
0.0
 10
23.364393
 20
41.640595
 30
0.0
 10
22.561079
 20
41.721003
 30
0.0
 10
22.180595
 20
41.700965
 30
0.0
 10
21.829877
 20
41.640682
 30
0.0
 10
21.506304
 20
41.539915
 30
0.0
 10
21.207259
 20
41.398428
 30
0.0
 10
20.930121
 20
41.215986
 30
0.0
 10
20.672271
 20
40.992347
 30
0.0
 10
20.431090
 20
40.727273
 30
0.0
 10
20.203959
 20
40.420528
 30
0.0
 10
20.198879
 20
40.420528
 30
0.0
 10
20.193799
 20
40.420528
 30
0.0
 10
20.188719
 20
40.420528
 30
0.0
 10
20.183639
 20
40.420528
 30
0.0
 10
20.178559
 20
40.420528
 30
0.0
 10
20.173479
 20
40.420528
 30
0.0
 10
20.168399
 20
40.420528
 30
0.0
 10
20.163319
 20
40.420528
 30
0.0
 10
20.163319
 20
40.994568
 30
0.0
 10
20.163319
 20
41.568608
 30
0.0
 10
20.163319
 20
42.142648
 30
0.0
 10
20.163319
 20
42.716688
 30
0.0
 10
20.163319
 20
43.290728
 30
0.0
 10
20.163319
 20
43.864768
 30
0.0
 10
20.163319
 20
44.438808
 30
0.0
 10
20.163319
 20
45.012848
 30
0.0
 10
19.812799
 20
45.012848
 30
0.0
 10
19.462279
 20
45.012848
 30
0.0
 10
19.111759
 20
45.012848
 30
0.0
 10
18.761239
 20
45.012848
 30
0.0
 10
18.410719
 20
45.012848
 30
0.0
 10
18.060199
 20
45.012848
 30
0.0
 10
17.709679
 20
45.012848
 30
0.0
 10
17.359159
 20
45.012848
 30
0.0
 10
17.359159
 20
43.199288
 30
0.0
 10
17.359159
 20
41.385728
 30
0.0
 10
17.359159
 20
39.572168
 30
0.0
 10
17.359159
 20
37.758608
 30
0.0
 10
17.359159
 20
35.945048
 30
0.0
 10
17.359159
 20
34.131488
 30
0.0
 10
17.359159
 20
32.317928
 30
0.0
 10
17.359159
 20
30.504368
 30
0.0
  0
LWPOLYLINE
  5
104
100
AcDbEntity
  8
Line1
 62
7
100
AcDbPolyline
 90
17
 70
0
 10
26.590648
 20
30.504363
 30
0.0
 10
27.291688
 20
30.504363
 30
0.0
 10
27.992728
 20
30.504363
 30
0.0
 10
28.693768
 20
30.504363
 30
0.0
 10
29.394808
 20
30.504363
 30
0.0
 10
29.394808
 20
33.237403
 30
0.0
 10
29.394808
 20
35.970443
 30
0.0
 10
29.394808
 20
38.703483
 30
0.0
 10
29.394808
 20
41.436523
 30
0.0
 10
28.693768
 20
41.436523
 30
0.0
 10
27.992728
 20
41.436523
 30
0.0
 10
27.291688
 20
41.436523
 30
0.0
 10
26.590648
 20
41.436523
 30
0.0
 10
26.590648
 20
38.703483
 30
0.0
 10
26.590648
 20
35.970443
 30
0.0
 10
26.590648
 20
33.237403
 30
0.0
 10
26.590648
 20
30.504363
 30
0.0
  0
LWPOLYLINE
  5
105
100
AcDbEntity
  8
Line1
 62
7
100
AcDbPolyline
 90
17
 70
0
 10
26.590648
 20
42.777643
 30
0.0
 10
27.291688
 20
42.777643
 30
0.0
 10
27.992728
 20
42.777643
 30
0.0
 10
28.693768
 20
42.777643
 30
0.0
 10
29.394808
 20
42.777643
 30
0.0
 10
29.394808
 20
43.377083
 30
0.0
 10
29.394808
 20
43.976523
 30
0.0
 10
29.394808
 20
44.575963
 30
0.0
 10
29.394808
 20
45.175403
 30
0.0
 10
28.693768
 20
45.175403
 30
0.0
 10
27.992728
 20
45.175403
 30
0.0
 10
27.291688
 20
45.175403
 30
0.0
 10
26.590648
 20
45.175403
 30
0.0
 10
26.590648
 20
44.575963
 30
0.0
 10
26.590648
 20
43.976523
 30
0.0
 10
26.590648
 20
43.377083
 30
0.0
 10
26.590648
 20
42.777643
 30
0.0
  0
LWPOLYLINE
  5
106
100
AcDbEntity
  8
Line1
 62
7
100
AcDbPolyline
 90
45
 70
0
 10
30.340500
 20
30.504363
 30
0.0
 10
31.041540
 20
30.504363
 30
0.0
 10
31.742580
 20
30.504363
 30
0.0
 10
32.443620
 20
30.504363
 30
0.0
 10
33.144660
 20
30.504363
 30
0.0
 10
33.144660
 20
32.145203
 30
0.0
 10
33.144660
 20
33.786043
 30
0.0
 10
33.144660
 20
35.426883
 30
0.0
 10
33.144660
 20
37.067723
 30
0.0
 10
33.331350
 20
37.992918
 30
0.0
 10
33.815220
 20
38.601883
 30
0.0
 10
34.481970
 20
38.936528
 30
0.0
 10
35.217300
 20
39.038763
 30
0.0
 10
35.433835
 20
39.035263
 30
0.0
 10
35.654180
 20
39.026063
 30
0.0
 10
35.874525
 20
39.013052
 30
0.0
 10
36.091060
 20
38.998123
 30
0.0
 10
36.091060
 20
39.668683
 30
0.0
 10
36.091060
 20
40.339243
 30
0.0
 10
36.091060
 20
41.009803
 30
0.0
 10
36.091060
 20
41.680363
 30
0.0
 10
35.965965
 20
41.695292
 30
0.0
 10
35.837060
 20
41.708303
 30
0.0
 10
35.708155
 20
41.717503
 30
0.0
 10
35.583060
 20
41.721003
 30
0.0
 10
34.780736
 20
41.596543
 30
0.0
 10
34.102240
 20
41.243483
 30
0.0
 10
33.534231
 20
40.692303
 30
0.0
 10
33.063380
 20
39.973483
 30
0.0
 10
33.053220
 20
39.973483
 30
0.0
 10
33.043060
 20
39.973483
 30
0.0
 10
33.032900
 20
39.973483
 30
0.0
 10
33.022740
 20
39.973483
 30
0.0
 10
33.022740
 20
40.339243
 30
0.0
 10
33.022740
 20
40.705003
 30
0.0
 10
33.022740
 20
41.070763
 30
0.0
 10
33.022740
 20
41.436523
 30
0.0
 10
32.352180
 20
41.436523
 30
0.0
 10
31.681620
 20
41.436523
 30
0.0
 10
31.011060
 20
41.436523
 30
0.0
 10
30.340500
 20
41.436523
 30
0.0
 10
30.340500
 20
38.703483
 30
0.0
 10
30.340500
 20
35.970443
 30
0.0
 10
30.340500
 20
33.237403
 30
0.0
 10
30.340500
 20
30.504363
 30
0.0
  0
LWPOLYLINE
  5
107
100
AcDbEntity
  8
Line1
 62
7
100
AcDbPolyline
 90
17
 70
0
 10
38.636950
 20
35.970443
 30
0.0
 10
38.694100
 20
37.535399
 30
0.0
 10
38.911270
 20
38.660303
 30
0.0
 10
39.357040
 20
39.339434
 30
0.0
 10
40.099990
 20
39.567083
 30
0.0
 10
40.854686
 20
39.339434
 30
0.0
 10
41.306490
 20
38.660303
 30
0.0
 10
41.525881
 20
37.535399
 30
0.0
 10
41.583350
 20
35.970443
 30
0.0
 10
41.525881
 20
34.405487
 30
0.0
 10
41.306490
 20
33.280583
 30
0.0
 10
40.854686
 20
32.601452
 30
0.0
 10
40.099990
 20
32.373803
 30
0.0
 10
39.357040
 20
32.601452
 30
0.0
 10
38.911270
 20
33.280583
 30
0.0
 10
38.694100
 20
34.405487
 30
0.0
 10
38.636950
 20
35.970443
 30
0.0
  0
LWPOLYLINE
  5
108
100
AcDbEntity
  8
Line1
 62
7
100
AcDbPolyline
 90
45
 70
0
 10
41.705270
 20
30.504363
 30
0.0
 10
42.375830
 20
30.504363
 30
0.0
 10
43.046390
 20
30.504363
 30
0.0
 10
43.716950
 20
30.504363
 30
0.0
 10
44.387510
 20
30.504363
 30
0.0
 10
44.387510
 20
34.131483
 30
0.0
 10
44.387510
 20
37.758603
 30
0.0
 10
44.387510
 20
41.385723
 30
0.0
 10
44.387510
 20
45.012843
 30
0.0
 10
43.686470
 20
45.012843
 30
0.0
 10
42.985430
 20
45.012843
 30
0.0
 10
42.284390
 20
45.012843
 30
0.0
 10
41.583350
 20
45.012843
 30
0.0
 10
41.583350
 20
43.864763
 30
0.0
 10
41.583350
 20
42.716683
 30
0.0
 10
41.583350
 20
41.568603
 30
0.0
 10
41.583350
 20
40.420523
 30
0.0
 10
41.573190
 20
40.420523
 30
0.0
 10
41.563030
 20
40.420523
 30
0.0
 10
41.552870
 20
40.420523
 30
0.0
 10
41.542710
 20
40.420523
 30
0.0
 10
41.074396
 20
40.992339
 30
0.0
 10
40.539410
 20
41.398423
 30
0.0
 10
39.916791
 20
41.640674
 30
0.0
 10
39.185590
 20
41.721003
 30
0.0
 10
37.693024
 20
41.393978
 30
0.0
 10
36.648130
 20
40.369723
 30
0.0
 10
36.033769
 20
38.583468
 30
0.0
 10
35.832790
 20
35.970443
 30
0.0
 10
36.033769
 20
33.357421
 30
0.0
 10
36.648130
 20
31.571166
 30
0.0
 10
37.693024
 20
30.546908
 30
0.0
 10
39.185590
 20
30.219883
 30
0.0
 10
39.950130
 20
30.302433
 30
0.0
 10
40.607990
 20
30.560243
 30
0.0
 10
41.174410
 20
31.008553
 30
0.0
 10
41.664630
 20
31.662603
 30
0.0
 10
41.674790
 20
31.662603
 30
0.0
 10
41.684950
 20
31.662603
 30
0.0
 10
41.695110
 20
31.662603
 30
0.0
 10
41.705270
 20
31.662603
 30
0.0
 10
41.705270
 20
31.373043
 30
0.0
 10
41.705270
 20
31.083483
 30
0.0
 10
41.705270
 20
30.793923
 30
0.0
 10
41.705270
 20
30.504363
 30
0.0
  0
LWPOLYLINE
  5
109
100
AcDbEntity
  8
Line1
 62
7
100
AcDbPolyline
 90
53
 70
0
 10
48.513845
 20
30.504363
 30
0.0
 10
49.214885
 20
30.504363
 30
0.0
 10
49.915925
 20
30.504363
 30
0.0
 10
50.616965
 20
30.504363
 30
0.0
 10
51.318005
 20
30.504363
 30
0.0
 10
51.318005
 20
32.317923
 30
0.0
 10
51.318005
 20
34.131483
 30
0.0
 10
51.318005
 20
35.945043
 30
0.0
 10
51.318005
 20
37.758603
 30
0.0
 10
51.415476
 20
38.555528
 30
0.0
 10
51.701545
 20
39.120043
 30
0.0
 10
52.166681
 20
39.455958
 30
0.0
 10
52.801365
 20
39.567083
 30
0.0
 10
53.340164
 20
39.483263
 30
0.0
 10
53.713225
 20
39.216563
 30
0.0
 10
53.930076
 20
38.744123
 30
0.0
 10
54.000245
 20
38.043083
 30
0.0
 10
54.000245
 20
36.158403
 30
0.0
 10
54.000245
 20
34.273723
 30
0.0
 10
54.000245
 20
32.389043
 30
0.0
 10
54.000245
 20
30.504363
 30
0.0
 10
54.701285
 20
30.504363
 30
0.0
 10
55.402325
 20
30.504363
 30
0.0
 10
56.103365
 20
30.504363
 30
0.0
 10
56.804405
 20
30.504363
 30
0.0
 10
56.804405
 20
32.531283
 30
0.0
 10
56.804405
 20
34.558203
 30
0.0
 10
56.804405
 20
36.585123
 30
0.0
 10
56.804405
 20
38.612043
 30
0.0
 10
56.615175
 20
40.006503
 30
0.0
 10
56.067805
 20
40.974243
 30
0.0
 10
55.192775
 20
41.538123
 30
0.0
 10
54.020565
 20
41.721003
 30
0.0
 10
53.181730
 20
41.633373
 30
0.0
 10
52.445765
 20
41.370483
 30
0.0
 10
51.831720
 20
40.932333
 30
0.0
 10
51.358645
 20
40.318923
 30
0.0
 10
51.348485
 20
40.318923
 30
0.0
 10
51.338325
 20
40.318923
 30
0.0
 10
51.328165
 20
40.318923
 30
0.0
 10
51.318005
 20
40.318923
 30
0.0
 10
51.318005
 20
41.492403
 30
0.0
 10
51.318005
 20
42.665883
 30
0.0
 10
51.318005
 20
43.839363
 30
0.0
 10
51.318005
 20
45.012843
 30
0.0
 10
50.616965
 20
45.012843
 30
0.0
 10
49.915925
 20
45.012843
 30
0.0
 10
49.214885
 20
45.012843
 30
0.0
 10
48.513845
 20
45.012843
 30
0.0
 10
48.513845
 20
41.385723
 30
0.0
 10
48.513845
 20
37.758603
 30
0.0
 10
48.513845
 20
34.131483
 30
0.0
 10
48.513845
 20
30.504363
 30
0.0
  0
LWPOLYLINE
  5
10a
100
AcDbEntity
  8
Line1
 62
7
100
AcDbPolyline
 90
69
 70
0
 10
60.143096
 20
38.083723
 30
0.0
 10
60.143096
 20
38.159923
 30
0.0
 10
60.143096
 20
38.236123
 30
0.0
 10
60.143096
 20
38.312323
 30
0.0
 10
60.143096
 20
38.388523
 30
0.0
 10
60.226281
 20
38.970818
 30
0.0
 10
60.473296
 20
39.419763
 30
0.0
 10
60.880331
 20
39.708688
 30
0.0
 10
61.443576
 20
39.810923
 30
0.0
 10
62.041111
 20
39.718532
 30
0.0
 10
62.444336
 20
39.452783
 30
0.0
 10
62.672301
 20
39.030827
 30
0.0
 10
62.744056
 20
38.469803
 30
0.0
 10
62.686588
 20
37.992602
 30
0.0
 10
62.497676
 20
37.639223
 30
0.0
 10
62.152553
 20
37.381097
 30
0.0
 10
61.626456
 20
37.189643
 30
0.0
 10
61.230216
 20
37.082963
 30
0.0
 10
60.833976
 20
36.976283
 30
0.0
 10
60.437736
 20
36.869603
 30
0.0
 10
60.041496
 20
36.762923
 30
0.0
 10
58.795308
 20
36.295244
 30
0.0
 10
57.935836
 20
35.627543
 30
0.0
 10
57.438313
 20
34.674089
 30
0.0
 10
57.277976
 20
33.349163
 30
0.0
 10
57.416406
 20
32.242993
 30
0.0
 10
57.867256
 20
31.235883
 30
0.0
 10
58.683866
 20
30.503093
 30
0.0
 10
59.919576
 20
30.219883
 30
0.0
 10
60.828896
 20
30.282113
 30
0.0
 10
61.570576
 20
30.504363
 30
0.0
 10
62.182716
 20
30.939973
 30
0.0
 10
62.703416
 20
31.642283
 30
0.0
 10
62.713576
 20
31.642283
 30
0.0
 10
62.723736
 20
31.642283
 30
0.0
 10
62.733896
 20
31.642283
 30
0.0
 10
62.744056
 20
31.642283
 30
0.0
 10
62.806603
 20
31.358757
 30
0.0
 10
62.878676
 20
31.065703
 30
0.0
 10
62.969798
 20
30.776462
 30
0.0
 10
63.089496
 20
30.504363
 30
0.0
 10
63.760056
 20
30.504363
 30
0.0
 10
64.430616
 20
30.504363
 30
0.0
 10
65.101176
 20
30.504363
 30
0.0
 10
65.771736
 20
30.504363
 30
0.0
 10
65.597746
 20
30.957437
 30
0.0
 10
65.492336
 20
31.416223
 30
0.0
 10
65.440266
 20
31.947402
 30
0.0
 10
65.426296
 20
32.617643
 30
0.0
 10
65.426296
 20
34.055283
 30
0.0
 10
65.426296
 20
35.492923
 30
0.0
 10
65.426296
 20
36.930563
 30
0.0
 10
65.426296
 20
38.368203
 30
0.0
 10
65.275801
 20
39.723609
 30
0.0
 10
64.694776
 20
40.783743
 30
0.0
 10
63.488911
 20
41.474304
 30
0.0
 10
61.463896
 20
41.721003
 30
0.0
 10
59.972281
 20
41.548283
 30
0.0
 10
58.751176
 20
40.979323
 30
0.0
 10
57.926311
 20
39.937923
 30
0.0
 10
57.623416
 20
38.347883
 30
0.0
 10
57.623416
 20
38.281843
 30
0.0
 10
57.623416
 20
38.215803
 30
0.0
 10
57.623416
 20
38.149763
 30
0.0
 10
57.623416
 20
38.083723
 30
0.0
 10
58.253336
 20
38.083723
 30
0.0
 10
58.883256
 20
38.083723
 30
0.0
 10
59.513176
 20
38.083723
 30
0.0
 10
60.143096
 20
38.083723
 30
0.0
  0
LWPOLYLINE
  5
10b
100
AcDbEntity
  8
Line1
 62
7
100
AcDbPolyline
 90
21
 70
0
 10
62.744056
 20
33.816523
 30
0.0
 10
62.579908
 20
33.047222
 30
0.0
 10
62.162396
 20
32.523663
 30
0.0
 10
61.603913
 20
32.224897
 30
0.0
 10
61.016856
 20
32.129963
 30
0.0
 10
60.534573
 20
32.250932
 30
0.0
 10
60.206596
 20
32.579543
 30
0.0
 10
60.019588
 20
33.064367
 30
0.0
 10
59.960216
 20
33.653963
 30
0.0
 10
60.047846
 20
34.307378
 30
0.0
 10
60.325976
 20
34.812203
 30
0.0
 10
60.817466
 20
35.179868
 30
0.0
 10
61.545176
 20
35.421803
 30
0.0
 10
61.823941
 20
35.501813
 30
0.0
 10
62.129376
 20
35.619923
 30
0.0
 10
62.442431
 20
35.776133
 30
0.0
 10
62.744056
 20
35.970443
 30
0.0
 10
62.744056
 20
35.431963
 30
0.0
 10
62.744056
 20
34.893483
 30
0.0
 10
62.744056
 20
34.355003
 30
0.0
 10
62.744056
 20
33.816523
 30
0.0
  0
LWPOLYLINE
  5
10c
100
AcDbEntity
  8
Line1
 62
7
100
AcDbPolyline
 90
53
 70
0
 10
66.376748
 20
30.504363
 30
0.0
 10
67.077788
 20
30.504363
 30
0.0
 10
67.778828
 20
30.504363
 30
0.0
 10
68.479868
 20
30.504363
 30
0.0
 10
69.180908
 20
30.504363
 30
0.0
 10
69.180908
 20
32.317923
 30
0.0
 10
69.180908
 20
34.131483
 30
0.0
 10
69.180908
 20
35.945043
 30
0.0
 10
69.180908
 20
37.758603
 30
0.0
 10
69.278379
 20
38.555528
 30
0.0
 10
69.564448
 20
39.120043
 30
0.0
 10
70.029584
 20
39.455958
 30
0.0
 10
70.664268
 20
39.567083
 30
0.0
 10
71.203064
 20
39.483263
 30
0.0
 10
71.576128
 20
39.216563
 30
0.0
 10
71.792979
 20
38.744123
 30
0.0
 10
71.863148
 20
38.043083
 30
0.0
 10
71.863148
 20
36.158403
 30
0.0
 10
71.863148
 20
34.273723
 30
0.0
 10
71.863148
 20
32.389043
 30
0.0
 10
71.863148
 20
30.504363
 30
0.0
 10
72.564188
 20
30.504363
 30
0.0
 10
73.265228
 20
30.504363
 30
0.0
 10
73.966268
 20
30.504363
 30
0.0
 10
74.667308
 20
30.504363
 30
0.0
 10
74.667308
 20
32.531283
 30
0.0
 10
74.667308
 20
34.558203
 30
0.0
 10
74.667308
 20
36.585123
 30
0.0
 10
74.667308
 20
38.612043
 30
0.0
 10
74.478078
 20
40.006503
 30
0.0
 10
73.930708
 20
40.974243
 30
0.0
 10
73.055678
 20
41.538123
 30
0.0
 10
71.883468
 20
41.721003
 30
0.0
 10
71.034154
 20
41.627974
 30
0.0
 10
70.270568
 20
41.342543
 30
0.0
 10
69.617469
 20
40.855179
 30
0.0
 10
69.099628
 20
40.156363
 30
0.0
 10
69.089468
 20
40.156363
 30
0.0
 10
69.079308
 20
40.156363
 30
0.0
 10
69.069148
 20
40.156363
 30
0.0
 10
69.058988
 20
40.156363
 30
0.0
 10
69.058988
 20
40.476403
 30
0.0
 10
69.058988
 20
40.796443
 30
0.0
 10
69.058988
 20
41.116483
 30
0.0
 10
69.058988
 20
41.436523
 30
0.0
 10
68.388428
 20
41.436523
 30
0.0
 10
67.717868
 20
41.436523
 30
0.0
 10
67.047308
 20
41.436523
 30
0.0
 10
66.376748
 20
41.436523
 30
0.0
 10
66.376748
 20
38.703483
 30
0.0
 10
66.376748
 20
35.970443
 30
0.0
 10
66.376748
 20
33.237403
 30
0.0
 10
66.376748
 20
30.504363
 30
0.0
  0
LWPOLYLINE
  5
10d
100
AcDbEntity
  8
Line1
 62
7
100
AcDbPolyline
 90
65
 70
0
 10
81.013356
 20
41.436523
 30
0.0
 10
81.013356
 20
41.131723
 30
0.0
 10
81.013356
 20
40.826923
 30
0.0
 10
81.013356
 20
40.522123
 30
0.0
 10
81.013356
 20
40.217323
 30
0.0
 10
81.003196
 20
40.217323
 30
0.0
 10
80.993036
 20
40.217323
 30
0.0
 10
80.982876
 20
40.217323
 30
0.0
 10
80.972716
 20
40.217323
 30
0.0
 10
80.505991
 20
40.932333
 30
0.0
 10
79.936396
 20
41.395883
 30
0.0
 10
79.321081
 20
41.646073
 30
0.0
 10
78.717196
 20
41.721003
 30
0.0
 10
76.894746
 20
41.211098
 30
0.0
 10
75.857156
 20
39.897283
 30
0.0
 10
75.391066
 20
38.103408
 30
0.0
 10
75.283116
 20
36.153323
 30
0.0
 10
75.492666
 20
33.600942
 30
0.0
 10
76.121316
 20
31.888666
 30
0.0
 10
77.169066
 20
30.926957
 30
0.0
 10
78.635916
 20
30.626283
 30
0.0
 10
79.298221
 20
30.721533
 30
0.0
 10
79.926236
 20
30.992043
 30
0.0
 10
80.493291
 20
31.414953
 30
0.0
 10
80.972716
 20
31.967403
 30
0.0
 10
80.982876
 20
31.967403
 30
0.0
 10
80.993036
 20
31.967403
 30
0.0
 10
81.003196
 20
31.967403
 30
0.0
 10
81.013356
 20
31.967403
 30
0.0
 10
81.013356
 20
31.606723
 30
0.0
 10
81.013356
 20
31.246043
 30
0.0
 10
81.013356
 20
30.885363
 30
0.0
 10
81.013356
 20
30.524683
 30
0.0
 10
80.932076
 20
29.745222
 30
0.0
 10
80.667916
 20
29.120063
 30
0.0
 10
80.190396
 20
28.704457
 30
0.0
 10
79.469036
 20
28.553643
 30
0.0
 10
79.214401
 20
28.575543
 30
0.0
 10
78.971196
 20
28.637457
 30
0.0
 10
78.743231
 20
28.733658
 30
0.0
 10
78.534316
 20
28.858437
 30
0.0
 10
78.356198
 20
29.014328
 30
0.0
 10
78.221896
 20
29.206417
 30
0.0
 10
78.137123
 20
29.432793
 30
0.0
 10
78.107596
 20
29.691557
 30
0.0
 10
77.437036
 20
29.691557
 30
0.0
 10
76.766476
 20
29.691557
 30
0.0
 10
76.095916
 20
29.691557
 30
0.0
 10
75.425356
 20
29.691557
 30
0.0
 10
75.672055
 20
28.445687
 30
0.0
 10
76.393096
 20
27.527477
 30
0.0
 10
77.559910
 20
26.959787
 30
0.0
 10
79.143916
 20
26.765477
 30
0.0
 10
81.235288
 20
27.029637
 30
0.0
 10
82.646576
 20
27.827197
 30
0.0
 10
83.444453
 20
29.165777
 30
0.0
 10
83.695596
 20
31.052997
 30
0.0
 10
83.695596
 20
33.648877
 30
0.0
 10
83.695596
 20
36.244757
 30
0.0
 10
83.695596
 20
38.840637
 30
0.0
 10
83.695596
 20
41.436517
 30
0.0
 10
83.025036
 20
41.436517
 30
0.0
 10
82.354476
 20
41.436517
 30
0.0
 10
81.683916
 20
41.436517
 30
0.0
 10
81.013356
 20
41.436517
 30
0.0
  0
LWPOLYLINE
  5
10e
100
AcDbEntity
  8
Line1
 62
7
100
AcDbPolyline
 90
17
 70
0
 10
78.087276
 20
35.624997
 30
0.0
 10
78.141570
 20
37.483958
 30
0.0
 10
78.353976
 20
38.700937
 30
0.0
 10
78.798795
 20
39.365463
 30
0.0
 10
79.550316
 20
39.567077
 30
0.0
 10
80.250403
 20
39.369908
 30
0.0
 10
80.700936
 20
38.736497
 30
0.0
 10
80.941918
 20
37.603973
 30
0.0
 10
81.013356
 20
35.909477
 30
0.0
 10
80.940966
 20
34.640431
 30
0.0
 10
80.693316
 20
33.651417
 30
0.0
 10
80.224686
 20
33.009116
 30
0.0
 10
79.489356
 20
32.780197
 30
0.0
 10
78.773076
 20
33.013242
 30
0.0
 10
78.346356
 20
33.638717
 30
0.0
 10
78.140616
 20
34.546132
 30
0.0
 10
78.087276
 20
35.624997
 30
0.0
  0
LWPOLYLINE
  5
10f
100
AcDbEntity
  8
Line1
 62
7
100
AcDbPolyline
 90
17
 70
0
 10
84.738128
 20
30.504363
 30
0.0
 10
85.439168
 20
30.504363
 30
0.0
 10
86.140208
 20
30.504363
 30
0.0
 10
86.841248
 20
30.504363
 30
0.0
 10
87.542288
 20
30.504363
 30
0.0
 10
87.542288
 20
33.237403
 30
0.0
 10
87.542288
 20
35.970443
 30
0.0
 10
87.542288
 20
38.703483
 30
0.0
 10
87.542288
 20
41.436523
 30
0.0
 10
86.841248
 20
41.436523
 30
0.0
 10
86.140208
 20
41.436523
 30
0.0
 10
85.439168
 20
41.436523
 30
0.0
 10
84.738128
 20
41.436523
 30
0.0
 10
84.738128
 20
38.703483
 30
0.0
 10
84.738128
 20
35.970443
 30
0.0
 10
84.738128
 20
33.237403
 30
0.0
 10
84.738128
 20
30.504363
 30
0.0
  0
LWPOLYLINE
  5
110
100
AcDbEntity
  8
Line1
 62
7
100
AcDbPolyline
 90
17
 70
0
 10
84.738128
 20
42.777643
 30
0.0
 10
85.439168
 20
42.777643
 30
0.0
 10
86.140208
 20
42.777643
 30
0.0
 10
86.841248
 20
42.777643
 30
0.0
 10
87.542288
 20
42.777643
 30
0.0
 10
87.542288
 20
43.377083
 30
0.0
 10
87.542288
 20
43.976523
 30
0.0
 10
87.542288
 20
44.575963
 30
0.0
 10
87.542288
 20
45.175403
 30
0.0
 10
86.841248
 20
45.175403
 30
0.0
 10
86.140208
 20
45.175403
 30
0.0
 10
85.439168
 20
45.175403
 30
0.0
 10
84.738128
 20
45.175403
 30
0.0
 10
84.738128
 20
44.575963
 30
0.0
 10
84.738128
 20
43.976523
 30
0.0
 10
84.738128
 20
43.377083
 30
0.0
 10
84.738128
 20
42.777643
 30
0.0
  0
LWPOLYLINE
  5
111
100
AcDbEntity
  8
Line1
 62
7
100
AcDbPolyline
 90
53
 70
0
 10
88.487981
 20
30.504363
 30
0.0
 10
89.189021
 20
30.504363
 30
0.0
 10
89.890061
 20
30.504363
 30
0.0
 10
90.591101
 20
30.504363
 30
0.0
 10
91.292141
 20
30.504363
 30
0.0
 10
91.292141
 20
32.317923
 30
0.0
 10
91.292141
 20
34.131483
 30
0.0
 10
91.292141
 20
35.945043
 30
0.0
 10
91.292141
 20
37.758603
 30
0.0
 10
91.389612
 20
38.555528
 30
0.0
 10
91.675681
 20
39.120043
 30
0.0
 10
92.140820
 20
39.455958
 30
0.0
 10
92.775501
 20
39.567083
 30
0.0
 10
93.314297
 20
39.483263
 30
0.0
 10
93.687361
 20
39.216563
 30
0.0
 10
93.904212
 20
38.744123
 30
0.0
 10
93.974381
 20
38.043083
 30
0.0
 10
93.974381
 20
36.158403
 30
0.0
 10
93.974381
 20
34.273723
 30
0.0
 10
93.974381
 20
32.389043
 30
0.0
 10
93.974381
 20
30.504363
 30
0.0
 10
94.675421
 20
30.504363
 30
0.0
 10
95.376461
 20
30.504363
 30
0.0
 10
96.077501
 20
30.504363
 30
0.0
 10
96.778541
 20
30.504363
 30
0.0
 10
96.778541
 20
32.531283
 30
0.0
 10
96.778541
 20
34.558203
 30
0.0
 10
96.778541
 20
36.585123
 30
0.0
 10
96.778541
 20
38.612043
 30
0.0
 10
96.589311
 20
40.006503
 30
0.0
 10
96.041941
 20
40.974243
 30
0.0
 10
95.166911
 20
41.538123
 30
0.0
 10
93.994701
 20
41.721003
 30
0.0
 10
93.145390
 20
41.627974
 30
0.0
 10
92.381801
 20
41.342543
 30
0.0
 10
91.728705
 20
40.855179
 30
0.0
 10
91.210861
 20
40.156363
 30
0.0
 10
91.200701
 20
40.156363
 30
0.0
 10
91.190541
 20
40.156363
 30
0.0
 10
91.180381
 20
40.156363
 30
0.0
 10
91.170221
 20
40.156363
 30
0.0
 10
91.170221
 20
40.476403
 30
0.0
 10
91.170221
 20
40.796443
 30
0.0
 10
91.170221
 20
41.116483
 30
0.0
 10
91.170221
 20
41.436523
 30
0.0
 10
90.499661
 20
41.436523
 30
0.0
 10
89.829101
 20
41.436523
 30
0.0
 10
89.158541
 20
41.436523
 30
0.0
 10
88.487981
 20
41.436523
 30
0.0
 10
88.487981
 20
38.703483
 30
0.0
 10
88.487981
 20
35.970443
 30
0.0
 10
88.487981
 20
33.237403
 30
0.0
 10
88.487981
 20
30.504363
 30
0.0
  0
LWPOLYLINE
  5
112
100
AcDbEntity
  8
Line1
 62
7
100
AcDbPolyline
 90
65
 70
0
 10
103.124584
 20
41.436523
 30
0.0
 10
103.124584
 20
41.131723
 30
0.0
 10
103.124584
 20
40.826923
 30
0.0
 10
103.124584
 20
40.522123
 30
0.0
 10
103.124584
 20
40.217323
 30
0.0
 10
103.114424
 20
40.217323
 30
0.0
 10
103.104264
 20
40.217323
 30
0.0
 10
103.094104
 20
40.217323
 30
0.0
 10
103.083944
 20
40.217323
 30
0.0
 10
102.617219
 20
40.932333
 30
0.0
 10
102.047624
 20
41.395883
 30
0.0
 10
101.432309
 20
41.646073
 30
0.0
 10
100.828424
 20
41.721003
 30
0.0
 10
99.005974
 20
41.211098
 30
0.0
 10
97.968384
 20
39.897283
 30
0.0
 10
97.502294
 20
38.103408
 30
0.0
 10
97.394344
 20
36.153323
 30
0.0
 10
97.603894
 20
33.600942
 30
0.0
 10
98.232544
 20
31.888666
 30
0.0
 10
99.280294
 20
30.926957
 30
0.0
 10
100.747144
 20
30.626283
 30
0.0
 10
101.409449
 20
30.721533
 30
0.0
 10
102.037464
 20
30.992043
 30
0.0
 10
102.604519
 20
31.414953
 30
0.0
 10
103.083944
 20
31.967403
 30
0.0
 10
103.094104
 20
31.967403
 30
0.0
 10
103.104264
 20
31.967403
 30
0.0
 10
103.114424
 20
31.967403
 30
0.0
 10
103.124584
 20
31.967403
 30
0.0
 10
103.124584
 20
31.606723
 30
0.0
 10
103.124584
 20
31.246043
 30
0.0
 10
103.124584
 20
30.885363
 30
0.0
 10
103.124584
 20
30.524683
 30
0.0
 10
103.043304
 20
29.745222
 30
0.0
 10
102.779144
 20
29.120063
 30
0.0
 10
102.301624
 20
28.704457
 30
0.0
 10
101.580264
 20
28.553643
 30
0.0
 10
101.325629
 20
28.575543
 30
0.0
 10
101.082424
 20
28.637457
 30
0.0
 10
100.854459
 20
28.733658
 30
0.0
 10
100.645544
 20
28.858437
 30
0.0
 10
100.467425
 20
29.014328
 30
0.0
 10
100.333124
 20
29.206417
 30
0.0
 10
100.248350
 20
29.432793
 30
0.0
 10
100.218824
 20
29.691557
 30
0.0
 10
99.548264
 20
29.691557
 30
0.0
 10
98.877704
 20
29.691557
 30
0.0
 10
98.207144
 20
29.691557
 30
0.0
 10
97.536584
 20
29.691557
 30
0.0
 10
97.783283
 20
28.445687
 30
0.0
 10
98.504324
 20
27.527477
 30
0.0
 10
99.671138
 20
26.959787
 30
0.0
 10
101.255144
 20
26.765477
 30
0.0
 10
103.346515
 20
27.029637
 30
0.0
 10
104.757804
 20
27.827197
 30
0.0
 10
105.555680
 20
29.165777
 30
0.0
 10
105.806824
 20
31.052997
 30
0.0
 10
105.806824
 20
33.648877
 30
0.0
 10
105.806824
 20
36.244757
 30
0.0
 10
105.806824
 20
38.840637
 30
0.0
 10
105.806824
 20
41.436517
 30
0.0
 10
105.136264
 20
41.436517
 30
0.0
 10
104.465704
 20
41.436517
 30
0.0
 10
103.795144
 20
41.436517
 30
0.0
 10
103.124584
 20
41.436517
 30
0.0
  0
LWPOLYLINE
  5
113
100
AcDbEntity
  8
Line1
 62
7
100
AcDbPolyline
 90
17
 70
0
 10
100.198504
 20
35.624997
 30
0.0
 10
100.252795
 20
37.483958
 30
0.0
 10
100.465204
 20
38.700937
 30
0.0
 10
100.910020
 20
39.365463
 30
0.0
 10
101.661544
 20
39.567077
 30
0.0
 10
102.361630
 20
39.369908
 30
0.0
 10
102.812164
 20
38.736497
 30
0.0
 10
103.053145
 20
37.603973
 30
0.0
 10
103.124584
 20
35.909477
 30
0.0
 10
103.052194
 20
34.640431
 30
0.0
 10
102.804544
 20
33.651417
 30
0.0
 10
102.335914
 20
33.009116
 30
0.0
 10
101.600584
 20
32.780197
 30
0.0
 10
100.884304
 20
33.013242
 30
0.0
 10
100.457584
 20
33.638717
 30
0.0
 10
100.251844
 20
34.546132
 30
0.0
 10
100.198504
 20
35.624997
 30
0.0
  0
LWPOLYLINE
  5
114
100
AcDbEntity
  8
Line2
 62
7
100
AcDbPolyline
 90
17
 70
0
 10
30.286065
 20
20.730443
 30
0.0
 10
30.484820
 20
18.220288
 30
0.0
 10
31.175065
 20
16.407363
 30
0.0
 10
32.497770
 20
15.318338
 30
0.0
 10
34.593905
 20
14.979883
 30
0.0
 10
36.621460
 20
15.352628
 30
0.0
 10
37.951785
 20
16.453083
 30
0.0
 10
38.680130
 20
18.254578
 30
0.0
 10
38.901745
 20
20.730443
 30
0.0
 10
38.702990
 20
23.240598
 30
0.0
 10
38.012745
 20
25.053523
 30
0.0
 10
36.690040
 20
26.142548
 30
0.0
 10
34.593905
 20
26.481003
 30
0.0
 10
32.566350
 20
26.108258
 30
0.0
 10
31.236025
 20
25.007803
 30
0.0
 10
30.507680
 20
23.206308
 30
0.0
 10
30.286065
 20
20.730443
 30
0.0
  0
LWPOLYLINE
  5
115
100
AcDbEntity
  8
Line2
 62
7
100
AcDbPolyline
 90
17
 70
0
 10
33.090225
 20
20.730443
 30
0.0
 10
33.130865
 20
22.273493
 30
0.0
 10
33.323905
 20
23.488883
 30
0.0
 10
33.776025
 20
24.285173
 30
0.0
 10
34.593905
 20
24.570923
 30
0.0
 10
35.308915
 20
24.353753
 30
0.0
 10
35.772465
 20
23.671763
 30
0.0
 10
36.022655
 20
22.479233
 30
0.0
 10
36.097585
 20
20.730443
 30
0.0
 10
36.022655
 20
18.981653
 30
0.0
 10
35.772465
 20
17.789123
 30
0.0
 10
35.308915
 20
17.107133
 30
0.0
 10
34.593905
 20
16.889963
 30
0.0
 10
33.776025
 20
17.175713
 30
0.0
 10
33.323905
 20
17.972003
 30
0.0
 10
33.130865
 20
19.187393
 30
0.0
 10
33.090225
 20
20.730443
 30
0.0
  0
LWPOLYLINE
  5
116
100
AcDbEntity
  8
Line2
 62
7
100
AcDbPolyline
 90
53
 70
0
 10
39.384839
 20
15.264363
 30
0.0
 10
40.085879
 20
15.264363
 30
0.0
 10
40.786919
 20
15.264363
 30
0.0
 10
41.487959
 20
15.264363
 30
0.0
 10
42.188999
 20
15.264363
 30
0.0
 10
42.188999
 20
17.077923
 30
0.0
 10
42.188999
 20
18.891483
 30
0.0
 10
42.188999
 20
20.705043
 30
0.0
 10
42.188999
 20
22.518603
 30
0.0
 10
42.286473
 20
23.315528
 30
0.0
 10
42.572539
 20
23.880043
 30
0.0
 10
43.037678
 20
24.215958
 30
0.0
 10
43.672359
 20
24.327083
 30
0.0
 10
44.211155
 20
24.243263
 30
0.0
 10
44.584219
 20
23.976563
 30
0.0
 10
44.801073
 20
23.504123
 30
0.0
 10
44.871239
 20
22.803083
 30
0.0
 10
44.871239
 20
20.918403
 30
0.0
 10
44.871239
 20
19.033723
 30
0.0
 10
44.871239
 20
17.149043
 30
0.0
 10
44.871239
 20
15.264363
 30
0.0
 10
45.572279
 20
15.264363
 30
0.0
 10
46.273319
 20
15.264363
 30
0.0
 10
46.974359
 20
15.264363
 30
0.0
 10
47.675399
 20
15.264363
 30
0.0
 10
47.675399
 20
17.291283
 30
0.0
 10
47.675399
 20
19.318203
 30
0.0
 10
47.675399
 20
21.345123
 30
0.0
 10
47.675399
 20
23.372043
 30
0.0
 10
47.486169
 20
24.766503
 30
0.0
 10
46.938799
 20
25.734243
 30
0.0
 10
46.063769
 20
26.298123
 30
0.0
 10
44.891559
 20
26.481003
 30
0.0
 10
44.042245
 20
26.387974
 30
0.0
 10
43.278659
 20
26.102543
 30
0.0
 10
42.625563
 20
25.615179
 30
0.0
 10
42.107719
 20
24.916363
 30
0.0
 10
42.097559
 20
24.916363
 30
0.0
 10
42.087399
 20
24.916363
 30
0.0
 10
42.077239
 20
24.916363
 30
0.0
 10
42.067079
 20
24.916363
 30
0.0
 10
42.067079
 20
25.236403
 30
0.0
 10
42.067079
 20
25.556443
 30
0.0
 10
42.067079
 20
25.876483
 30
0.0
 10
42.067079
 20
26.196523
 30
0.0
 10
41.396519
 20
26.196523
 30
0.0
 10
40.725959
 20
26.196523
 30
0.0
 10
40.055399
 20
26.196523
 30
0.0
 10
39.384839
 20
26.196523
 30
0.0
 10
39.384839
 20
23.463483
 30
0.0
 10
39.384839
 20
20.730443
 30
0.0
 10
39.384839
 20
17.997403
 30
0.0
 10
39.384839
 20
15.264363
 30
0.0
  0
LWPOLYLINE
  5
117
100
AcDbEntity
  8
Line2
 62
7
100
AcDbPolyline
 90
65
 70
0
 10
52.411336
 20
26.196523
 30
0.0
 10
52.055736
 20
26.196523
 30
0.0
 10
51.700136
 20
26.196523
 30
0.0
 10
51.344536
 20
26.196523
 30
0.0
 10
50.988936
 20
26.196523
 30
0.0
 10
50.988936
 20
25.719003
 30
0.0
 10
50.988936
 20
25.241483
 30
0.0
 10
50.988936
 20
24.763963
 30
0.0
 10
50.988936
 20
24.286443
 30
0.0
 10
51.344536
 20
24.286443
 30
0.0
 10
51.700136
 20
24.286443
 30
0.0
 10
52.055736
 20
24.286443
 30
0.0
 10
52.411336
 20
24.286443
 30
0.0
 10
52.411336
 20
22.721803
 30
0.0
 10
52.411336
 20
21.157163
 30
0.0
 10
52.411336
 20
19.592523
 30
0.0
 10
52.411336
 20
18.027883
 30
0.0
 10
52.509126
 20
16.642632
 30
0.0
 10
52.888856
 20
15.754583
 30
0.0
 10
53.680066
 20
15.281827
 30
0.0
 10
55.012296
 20
15.142443
 30
0.0
 10
55.486641
 20
15.152913
 30
0.0
 10
55.941936
 20
15.180543
 30
0.0
 10
56.389611
 20
15.219594
 30
0.0
 10
56.841096
 20
15.264363
 30
0.0
 10
56.841096
 20
15.752043
 30
0.0
 10
56.841096
 20
16.239723
 30
0.0
 10
56.841096
 20
16.727403
 30
0.0
 10
56.841096
 20
17.215083
 30
0.0
 10
56.696951
 20
17.200153
 30
0.0
 10
56.541376
 20
17.187143
 30
0.0
 10
56.378181
 20
17.177942
 30
0.0
 10
56.211176
 20
17.174443
 30
0.0
 10
55.712701
 20
17.241753
 30
0.0
 10
55.408536
 20
17.453843
 30
0.0
 10
55.256771
 20
17.825953
 30
0.0
 10
55.215496
 20
18.373323
 30
0.0
 10
55.215496
 20
19.851603
 30
0.0
 10
55.215496
 20
21.329883
 30
0.0
 10
55.215496
 20
22.808163
 30
0.0
 10
55.215496
 20
24.286443
 30
0.0
 10
55.621896
 20
24.286443
 30
0.0
 10
56.028296
 20
24.286443
 30
0.0
 10
56.434696
 20
24.286443
 30
0.0
 10
56.841096
 20
24.286443
 30
0.0
 10
56.841096
 20
24.763963
 30
0.0
 10
56.841096
 20
25.241483
 30
0.0
 10
56.841096
 20
25.719003
 30
0.0
 10
56.841096
 20
26.196523
 30
0.0
 10
56.434696
 20
26.196523
 30
0.0
 10
56.028296
 20
26.196523
 30
0.0
 10
55.621896
 20
26.196523
 30
0.0
 10
55.215496
 20
26.196523
 30
0.0
 10
55.215496
 20
26.978843
 30
0.0
 10
55.215496
 20
27.761163
 30
0.0
 10
55.215496
 20
28.543483
 30
0.0
 10
55.215496
 20
29.325803
 30
0.0
 10
54.514456
 20
29.325803
 30
0.0
 10
53.813416
 20
29.325803
 30
0.0
 10
53.112376
 20
29.325803
 30
0.0
 10
52.411336
 20
29.325803
 30
0.0
 10
52.411336
 20
28.543483
 30
0.0
 10
52.411336
 20
27.761163
 30
0.0
 10
52.411336
 20
26.978843
 30
0.0
 10
52.411336
 20
26.196523
 30
0.0
  0
LWPOLYLINE
  5
118
100
AcDbEntity
  8
Line2
 62
7
100
AcDbPolyline
 90
53
 70
0
 10
57.777789
 20
15.264363
 30
0.0
 10
58.478829
 20
15.264363
 30
0.0
 10
59.179869
 20
15.264363
 30
0.0
 10
59.880909
 20
15.264363
 30
0.0
 10
60.581949
 20
15.264363
 30
0.0
 10
60.581949
 20
17.077923
 30
0.0
 10
60.581949
 20
18.891483
 30
0.0
 10
60.581949
 20
20.705043
 30
0.0
 10
60.581949
 20
22.518603
 30
0.0
 10
60.679420
 20
23.315528
 30
0.0
 10
60.965489
 20
23.880043
 30
0.0
 10
61.430625
 20
24.215958
 30
0.0
 10
62.065309
 20
24.327083
 30
0.0
 10
62.604105
 20
24.243263
 30
0.0
 10
62.977169
 20
23.976563
 30
0.0
 10
63.194020
 20
23.504123
 30
0.0
 10
63.264189
 20
22.803083
 30
0.0
 10
63.264189
 20
20.918403
 30
0.0
 10
63.264189
 20
19.033723
 30
0.0
 10
63.264189
 20
17.149043
 30
0.0
 10
63.264189
 20
15.264363
 30
0.0
 10
63.965229
 20
15.264363
 30
0.0
 10
64.666269
 20
15.264363
 30
0.0
 10
65.367309
 20
15.264363
 30
0.0
 10
66.068349
 20
15.264363
 30
0.0
 10
66.068349
 20
17.291283
 30
0.0
 10
66.068349
 20
19.318203
 30
0.0
 10
66.068349
 20
21.345123
 30
0.0
 10
66.068349
 20
23.372043
 30
0.0
 10
65.879119
 20
24.766503
 30
0.0
 10
65.331749
 20
25.734243
 30
0.0
 10
64.456719
 20
26.298123
 30
0.0
 10
63.284509
 20
26.481003
 30
0.0
 10
62.445674
 20
26.393373
 30
0.0
 10
61.709709
 20
26.130483
 30
0.0
 10
61.095664
 20
25.692333
 30
0.0
 10
60.622589
 20
25.078923
 30
0.0
 10
60.612429
 20
25.078923
 30
0.0
 10
60.602269
 20
25.078923
 30
0.0
 10
60.592109
 20
25.078923
 30
0.0
 10
60.581949
 20
25.078923
 30
0.0
 10
60.581949
 20
26.252403
 30
0.0
 10
60.581949
 20
27.425883
 30
0.0
 10
60.581949
 20
28.599363
 30
0.0
 10
60.581949
 20
29.772843
 30
0.0
 10
59.880909
 20
29.772843
 30
0.0
 10
59.179869
 20
29.772843
 30
0.0
 10
58.478829
 20
29.772843
 30
0.0
 10
57.777789
 20
29.772843
 30
0.0
 10
57.777789
 20
26.145723
 30
0.0
 10
57.777789
 20
22.518603
 30
0.0
 10
57.777789
 20
18.891483
 30
0.0
 10
57.777789
 20
15.264363
 30
0.0
  0
LWPOLYLINE
  5
119
100
AcDbEntity
  8
Line2
 62
7
100
AcDbPolyline
 90
41
 70
0
 10
75.826465
 20
20.303723
 30
0.0
 10
75.826465
 20
20.461203
 30
0.0
 10
75.826465
 20
20.618683
 30
0.0
 10
75.826465
 20
20.776163
 30
0.0
 10
75.826465
 20
20.933643
 30
0.0
 10
75.661046
 20
23.214879
 30
0.0
 10
75.051765
 20
24.964623
 30
0.0
 10
73.829071
 20
26.085714
 30
0.0
 10
71.823425
 20
26.481003
 30
0.0
 10
69.549490
 20
26.009833
 30
0.0
 10
68.231865
 20
24.753803
 30
0.0
 10
67.622900
 20
22.949133
 30
0.0
 10
67.474945
 20
20.832043
 30
0.0
 10
67.563845
 20
18.768928
 30
0.0
 10
68.064228
 20
16.884883
 30
0.0
 10
69.326608
 20
15.511378
 30
0.0
 10
71.701505
 20
14.979883
 30
0.0
 10
73.420766
 20
15.241822
 30
0.0
 10
74.635205
 20
16.008583
 30
0.0
 10
75.373391
 20
17.251597
 30
0.0
 10
75.663905
 20
18.942283
 30
0.0
 10
75.033985
 20
18.942283
 30
0.0
 10
74.404065
 20
18.942283
 30
0.0
 10
73.774145
 20
18.942283
 30
0.0
 10
73.144225
 20
18.942283
 30
0.0
 10
72.975315
 20
18.055823
 30
0.0
 10
72.692105
 20
17.413203
 30
0.0
 10
72.264115
 20
17.022043
 30
0.0
 10
71.660865
 20
16.889963
 30
0.0
 10
71.007769
 20
17.106817
 30
0.0
 10
70.581365
 20
17.679903
 30
0.0
 10
70.349274
 20
18.493022
 30
0.0
 10
70.279105
 20
19.429963
 30
0.0
 10
70.279105
 20
19.648403
 30
0.0
 10
70.279105
 20
19.866843
 30
0.0
 10
70.279105
 20
20.085283
 30
0.0
 10
70.279105
 20
20.303723
 30
0.0
 10
71.665945
 20
20.303723
 30
0.0
 10
73.052785
 20
20.303723
 30
0.0
 10
74.439625
 20
20.303723
 30
0.0
 10
75.826465
 20
20.303723
 30
0.0
  0
LWPOLYLINE
  5
11a
100
AcDbEntity
  8
Line2
 62
7
100
AcDbPolyline
 90
17
 70
0
 10
70.279105
 20
21.969963
 30
0.0
 10
70.279105
 20
22.076643
 30
0.0
 10
70.279105
 20
22.183323
 30
0.0
 10
70.279105
 20
22.290003
 30
0.0
 10
70.279105
 20
22.396683
 30
0.0
 10
70.347369
 20
23.165033
 30
0.0
 10
70.581365
 20
23.864803
 30
0.0
 10
71.024914
 20
24.374073
 30
0.0
 10
71.721825
 20
24.570923
 30
0.0
 10
72.424135
 20
24.398838
 30
0.0
 10
72.844505
 20
23.895283
 30
0.0
 10
73.059135
 20
23.079308
 30
0.0
 10
73.144225
 20
21.969963
 30
0.0
 10
72.427945
 20
21.969963
 30
0.0
 10
71.711665
 20
21.969963
 30
0.0
 10
70.995385
 20
21.969963
 30
0.0
 10
70.279105
 20
21.969963
 30
0.0
  0
LWPOLYLINE
  5
11b
100
AcDbEntity
  8
Line2
 62
7
100
AcDbPolyline
 90
65
 70
0
 10
81.129138
 20
15.264363
 30
0.0
 10
81.941938
 20
15.264363
 30
0.0
 10
82.754738
 20
15.264363
 30
0.0
 10
83.567538
 20
15.264363
 30
0.0
 10
84.380338
 20
15.264363
 30
0.0
 10
84.720698
 20
17.204923
 30
0.0
 10
85.061058
 20
19.145483
 30
0.0
 10
85.401418
 20
21.086043
 30
0.0
 10
85.741778
 20
23.026603
 30
0.0
 10
85.751938
 20
23.026603
 30
0.0
 10
85.762098
 20
23.026603
 30
0.0
 10
85.772258
 20
23.026603
 30
0.0
 10
85.782418
 20
23.026603
 30
0.0
 10
86.143098
 20
21.086043
 30
0.0
 10
86.503778
 20
19.145483
 30
0.0
 10
86.864458
 20
17.204923
 30
0.0
 10
87.225138
 20
15.264363
 30
0.0
 10
88.022698
 20
15.264363
 30
0.0
 10
88.820258
 20
15.264363
 30
0.0
 10
89.617818
 20
15.264363
 30
0.0
 10
90.415378
 20
15.264363
 30
0.0
 10
91.004658
 20
17.997403
 30
0.0
 10
91.593938
 20
20.730443
 30
0.0
 10
92.183218
 20
23.463483
 30
0.0
 10
92.772498
 20
26.196523
 30
0.0
 10
92.101938
 20
26.196523
 30
0.0
 10
91.431378
 20
26.196523
 30
0.0
 10
90.760818
 20
26.196523
 30
0.0
 10
90.090258
 20
26.196523
 30
0.0
 10
89.760058
 20
24.255963
 30
0.0
 10
89.429858
 20
22.315403
 30
0.0
 10
89.099658
 20
20.374843
 30
0.0
 10
88.769458
 20
18.434283
 30
0.0
 10
88.759298
 20
18.434283
 30
0.0
 10
88.749138
 20
18.434283
 30
0.0
 10
88.738978
 20
18.434283
 30
0.0
 10
88.728818
 20
18.434283
 30
0.0
 10
88.368138
 20
20.374843
 30
0.0
 10
88.007458
 20
22.315403
 30
0.0
 10
87.646778
 20
24.255963
 30
0.0
 10
87.286098
 20
26.196523
 30
0.0
 10
86.524098
 20
26.196523
 30
0.0
 10
85.762098
 20
26.196523
 30
0.0
 10
85.000098
 20
26.196523
 30
0.0
 10
84.238098
 20
26.196523
 30
0.0
 10
83.897738
 20
24.255963
 30
0.0
 10
83.557378
 20
22.315403
 30
0.0
 10
83.217018
 20
20.374843
 30
0.0
 10
82.876658
 20
18.434283
 30
0.0
 10
82.866498
 20
18.434283
 30
0.0
 10
82.856338
 20
18.434283
 30
0.0
 10
82.846178
 20
18.434283
 30
0.0
 10
82.836018
 20
18.434283
 30
0.0
 10
82.515978
 20
20.374843
 30
0.0
 10
82.195938
 20
22.315403
 30
0.0
 10
81.875898
 20
24.255963
 30
0.0
 10
81.555858
 20
26.196523
 30
0.0
 10
80.854818
 20
26.196523
 30
0.0
 10
80.153778
 20
26.196523
 30
0.0
 10
79.452738
 20
26.196523
 30
0.0
 10
78.751698
 20
26.196523
 30
0.0
 10
79.346058
 20
23.463483
 30
0.0
 10
79.940418
 20
20.730443
 30
0.0
 10
80.534778
 20
17.997403
 30
0.0
 10
81.129138
 20
15.264363
 30
0.0
  0
LWPOLYLINE
  5
11c
100
AcDbEntity
  8
Line2
 62
7
100
AcDbPolyline
 90
17
 70
0
 10
92.903167
 20
15.264363
 30
0.0
 10
93.604207
 20
15.264363
 30
0.0
 10
94.305247
 20
15.264363
 30
0.0
 10
95.006287
 20
15.264363
 30
0.0
 10
95.707327
 20
15.264363
 30
0.0
 10
95.707327
 20
17.997403
 30
0.0
 10
95.707327
 20
20.730443
 30
0.0
 10
95.707327
 20
23.463483
 30
0.0
 10
95.707327
 20
26.196523
 30
0.0
 10
95.006287
 20
26.196523
 30
0.0
 10
94.305247
 20
26.196523
 30
0.0
 10
93.604207
 20
26.196523
 30
0.0
 10
92.903167
 20
26.196523
 30
0.0
 10
92.903167
 20
23.463483
 30
0.0
 10
92.903167
 20
20.730443
 30
0.0
 10
92.903167
 20
17.997403
 30
0.0
 10
92.903167
 20
15.264363
 30
0.0
  0
LWPOLYLINE
  5
11d
100
AcDbEntity
  8
Line2
 62
7
100
AcDbPolyline
 90
17
 70
0
 10
92.903167
 20
27.537643
 30
0.0
 10
93.604207
 20
27.537643
 30
0.0
 10
94.305247
 20
27.537643
 30
0.0
 10
95.006287
 20
27.537643
 30
0.0
 10
95.707327
 20
27.537643
 30
0.0
 10
95.707327
 20
28.137083
 30
0.0
 10
95.707327
 20
28.736523
 30
0.0
 10
95.707327
 20
29.335963
 30
0.0
 10
95.707327
 20
29.935403
 30
0.0
 10
95.006287
 20
29.935403
 30
0.0
 10
94.305247
 20
29.935403
 30
0.0
 10
93.604207
 20
29.935403
 30
0.0
 10
92.903167
 20
29.935403
 30
0.0
 10
92.903167
 20
29.335963
 30
0.0
 10
92.903167
 20
28.736523
 30
0.0
 10
92.903167
 20
28.137083
 30
0.0
 10
92.903167
 20
27.537643
 30
0.0
  0
LWPOLYLINE
  5
11e
100
AcDbEntity
  8
Line2
 62
7
100
AcDbPolyline
 90
45
 70
0
 10
96.653023
 20
15.264363
 30
0.0
 10
97.354063
 20
15.264363
 30
0.0
 10
98.055103
 20
15.264363
 30
0.0
 10
98.756143
 20
15.264363
 30
0.0
 10
99.457183
 20
15.264363
 30
0.0
 10
99.457183
 20
16.905203
 30
0.0
 10
99.457183
 20
18.546043
 30
0.0
 10
99.457183
 20
20.186883
 30
0.0
 10
99.457183
 20
21.827723
 30
0.0
 10
99.643873
 20
22.752918
 30
0.0
 10
100.127743
 20
23.361883
 30
0.0
 10
100.794493
 20
23.696528
 30
0.0
 10
101.529823
 20
23.798763
 30
0.0
 10
101.746358
 20
23.795263
 30
0.0
 10
101.966703
 20
23.786063
 30
0.0
 10
102.187048
 20
23.773052
 30
0.0
 10
102.403583
 20
23.758123
 30
0.0
 10
102.403583
 20
24.428683
 30
0.0
 10
102.403583
 20
25.099243
 30
0.0
 10
102.403583
 20
25.769803
 30
0.0
 10
102.403583
 20
26.440363
 30
0.0
 10
102.278488
 20
26.455292
 30
0.0
 10
102.149583
 20
26.468303
 30
0.0
 10
102.020678
 20
26.477503
 30
0.0
 10
101.895583
 20
26.481003
 30
0.0
 10
101.093259
 20
26.356543
 30
0.0
 10
100.414763
 20
26.003483
 30
0.0
 10
99.846754
 20
25.452303
 30
0.0
 10
99.375903
 20
24.733483
 30
0.0
 10
99.365743
 20
24.733483
 30
0.0
 10
99.355583
 20
24.733483
 30
0.0
 10
99.345423
 20
24.733483
 30
0.0
 10
99.335263
 20
24.733483
 30
0.0
 10
99.335263
 20
25.099243
 30
0.0
 10
99.335263
 20
25.465003
 30
0.0
 10
99.335263
 20
25.830763
 30
0.0
 10
99.335263
 20
26.196523
 30
0.0
 10
98.664703
 20
26.196523
 30
0.0
 10
97.994143
 20
26.196523
 30
0.0
 10
97.323583
 20
26.196523
 30
0.0
 10
96.653023
 20
26.196523
 30
0.0
 10
96.653023
 20
23.463483
 30
0.0
 10
96.653023
 20
20.730443
 30
0.0
 10
96.653023
 20
17.997403
 30
0.0
 10
96.653023
 20
15.264363
 30
0.0
  0
LWPOLYLINE
  5
11f
100
AcDbEntity
  8
Line2
 62
7
100
AcDbPolyline
 90
41
 70
0
 10
110.354595
 20
20.303723
 30
0.0
 10
110.354595
 20
20.461203
 30
0.0
 10
110.354595
 20
20.618683
 30
0.0
 10
110.354595
 20
20.776163
 30
0.0
 10
110.354595
 20
20.933643
 30
0.0
 10
110.189177
 20
23.214879
 30
0.0
 10
109.579893
 20
24.964623
 30
0.0
 10
108.357202
 20
26.085714
 30
0.0
 10
106.351555
 20
26.481003
 30
0.0
 10
104.077620
 20
26.009833
 30
0.0
 10
102.759995
 20
24.753803
 30
0.0
 10
102.151030
 20
22.949133
 30
0.0
 10
102.003075
 20
20.832043
 30
0.0
 10
102.091975
 20
18.768928
 30
0.0
 10
102.592355
 20
16.884883
 30
0.0
 10
103.854735
 20
15.511378
 30
0.0
 10
106.229635
 20
14.979883
 30
0.0
 10
107.948897
 20
15.241822
 30
0.0
 10
109.163335
 20
16.008583
 30
0.0
 10
109.901522
 20
17.251597
 30
0.0
 10
110.192035
 20
18.942283
 30
0.0
 10
109.562115
 20
18.942283
 30
0.0
 10
108.932195
 20
18.942283
 30
0.0
 10
108.302275
 20
18.942283
 30
0.0
 10
107.672355
 20
18.942283
 30
0.0
 10
107.503445
 20
18.055823
 30
0.0
 10
107.220235
 20
17.413203
 30
0.0
 10
106.792245
 20
17.022043
 30
0.0
 10
106.188995
 20
16.889963
 30
0.0
 10
105.535899
 20
17.106817
 30
0.0
 10
105.109495
 20
17.679903
 30
0.0
 10
104.877402
 20
18.493022
 30
0.0
 10
104.807235
 20
19.429963
 30
0.0
 10
104.807235
 20
19.648403
 30
0.0
 10
104.807235
 20
19.866843
 30
0.0
 10
104.807235
 20
20.085283
 30
0.0
 10
104.807235
 20
20.303723
 30
0.0
 10
106.194075
 20
20.303723
 30
0.0
 10
107.580915
 20
20.303723
 30
0.0
 10
108.967755
 20
20.303723
 30
0.0
 10
110.354595
 20
20.303723
 30
0.0
  0
LWPOLYLINE
  5
120
100
AcDbEntity
  8
Line2
 62
7
100
AcDbPolyline
 90
17
 70
0
 10
104.807235
 20
21.969963
 30
0.0
 10
104.807235
 20
22.076643
 30
0.0
 10
104.807235
 20
22.183323
 30
0.0
 10
104.807235
 20
22.290003
 30
0.0
 10
104.807235
 20
22.396683
 30
0.0
 10
104.875497
 20
23.165033
 30
0.0
 10
105.109495
 20
23.864803
 30
0.0
 10
105.553042
 20
24.374073
 30
0.0
 10
106.249955
 20
24.570923
 30
0.0
 10
106.952265
 20
24.398838
 30
0.0
 10
107.372635
 20
23.895283
 30
0.0
 10
107.587265
 20
23.079308
 30
0.0
 10
107.672355
 20
21.969963
 30
0.0
 10
106.956075
 20
21.969963
 30
0.0
 10
106.239795
 20
21.969963
 30
0.0
 10
105.523515
 20
21.969963
 30
0.0
 10
104.807235
 20
21.969963
 30
0.0
  0
LWPOLYLINE
  5
121
100
AcDbEntity
  8
Line3
 62
7
100
AcDbPolyline
 90
33
 70
0
 10
3.421050
 20
1.814380
 30
0.0
 10
4.183050
 20
1.814380
 30
0.0
 10
4.945050
 20
1.814380
 30
0.0
 10
5.707050
 20
1.814380
 30
0.0
 10
6.469050
 20
1.814380
 30
0.0
 10
6.636690
 20
2.581460
 30
0.0
 10
6.804330
 20
3.348540
 30
0.0
 10
6.971970
 20
4.115620
 30
0.0
 10
7.139610
 20
4.882700
 30
0.0
 10
8.104810
 20
4.882700
 30
0.0
 10
9.070010
 20
4.882700
 30
0.0
 10
10.035210
 20
4.882700
 30
0.0
 10
11.000410
 20
4.882700
 30
0.0
 10
11.168050
 20
4.115620
 30
0.0
 10
11.335690
 20
3.348540
 30
0.0
 10
11.503330
 20
2.581460
 30
0.0
 10
11.670970
 20
1.814380
 30
0.0
 10
12.432970
 20
1.814380
 30
0.0
 10
13.194970
 20
1.814380
 30
0.0
 10
13.956970
 20
1.814380
 30
0.0
 10
14.718970
 20
1.814380
 30
0.0
 10
13.758850
 20
5.441500
 30
0.0
 10
12.798730
 20
9.068620
 30
0.0
 10
11.838610
 20
12.695740
 30
0.0
 10
10.878490
 20
16.322865
 30
0.0
 10
9.974250
 20
16.322865
 30
0.0
 10
9.070010
 20
16.322865
 30
0.0
 10
8.165770
 20
16.322865
 30
0.0
 10
7.261530
 20
16.322865
 30
0.0
 10
6.301410
 20
12.695740
 30
0.0
 10
5.341290
 20
9.068620
 30
0.0
 10
4.381170
 20
5.441500
 30
0.0
 10
3.421050
 20
1.814380
 30
0.0
  0
LWPOLYLINE
  5
122
100
AcDbEntity
  8
Line3
 62
7
100
AcDbPolyline
 90
17
 70
0
 10
9.049690
 20
13.803180
 30
0.0
 10
9.059850
 20
13.803180
 30
0.0
 10
9.070010
 20
13.803180
 30
0.0
 10
9.080170
 20
13.803180
 30
0.0
 10
9.090330
 20
13.803180
 30
0.0
 10
9.440850
 20
12.172500
 30
0.0
 10
9.791370
 20
10.541820
 30
0.0
 10
10.141890
 20
8.911140
 30
0.0
 10
10.492410
 20
7.280460
 30
0.0
 10
9.781210
 20
7.280460
 30
0.0
 10
9.070010
 20
7.280460
 30
0.0
 10
8.358810
 20
7.280460
 30
0.0
 10
7.647610
 20
7.280460
 30
0.0
 10
7.998130
 20
8.911140
 30
0.0
 10
8.348650
 20
10.541820
 30
0.0
 10
8.699170
 20
12.172500
 30
0.0
 10
9.049690
 20
13.803180
 30
0.0
  0
LWPOLYLINE
  5
123
100
AcDbEntity
  8
Line3
 62
7
100
AcDbPolyline
 90
65
 70
0
 10
15.246196
 20
12.746540
 30
0.0
 10
14.890596
 20
12.746540
 30
0.0
 10
14.534996
 20
12.746540
 30
0.0
 10
14.179396
 20
12.746540
 30
0.0
 10
13.823796
 20
12.746540
 30
0.0
 10
13.823796
 20
12.269020
 30
0.0
 10
13.823796
 20
11.791500
 30
0.0
 10
13.823796
 20
11.313980
 30
0.0
 10
13.823796
 20
10.836460
 30
0.0
 10
14.179396
 20
10.836460
 30
0.0
 10
14.534996
 20
10.836460
 30
0.0
 10
14.890596
 20
10.836460
 30
0.0
 10
15.246196
 20
10.836460
 30
0.0
 10
15.246196
 20
9.271820
 30
0.0
 10
15.246196
 20
7.707180
 30
0.0
 10
15.246196
 20
6.142540
 30
0.0
 10
15.246196
 20
4.577900
 30
0.0
 10
15.343986
 20
3.192640
 30
0.0
 10
15.723716
 20
2.304600
 30
0.0
 10
16.514926
 20
1.831849
 30
0.0
 10
17.847156
 20
1.692460
 30
0.0
 10
18.321500
 20
1.702902
 30
0.0
 10
18.776796
 20
1.730560
 30
0.0
 10
19.224471
 20
1.769619
 30
0.0
 10
19.675956
 20
1.814380
 30
0.0
 10
19.675956
 20
2.302060
 30
0.0
 10
19.675956
 20
2.789740
 30
0.0
 10
19.675956
 20
3.277420
 30
0.0
 10
19.675956
 20
3.765100
 30
0.0
 10
19.531811
 20
3.750142
 30
0.0
 10
19.376236
 20
3.737160
 30
0.0
 10
19.213041
 20
3.727846
 30
0.0
 10
19.046036
 20
3.724460
 30
0.0
 10
18.547561
 20
3.791770
 30
0.0
 10
18.243396
 20
4.003860
 30
0.0
 10
18.091631
 20
4.375970
 30
0.0
 10
18.050356
 20
4.923340
 30
0.0
 10
18.050356
 20
6.401620
 30
0.0
 10
18.050356
 20
7.879900
 30
0.0
 10
18.050356
 20
9.358180
 30
0.0
 10
18.050356
 20
10.836460
 30
0.0
 10
18.456756
 20
10.836460
 30
0.0
 10
18.863156
 20
10.836460
 30
0.0
 10
19.269556
 20
10.836460
 30
0.0
 10
19.675956
 20
10.836460
 30
0.0
 10
19.675956
 20
11.313980
 30
0.0
 10
19.675956
 20
11.791500
 30
0.0
 10
19.675956
 20
12.269020
 30
0.0
 10
19.675956
 20
12.746540
 30
0.0
 10
19.269556
 20
12.746540
 30
0.0
 10
18.863156
 20
12.746540
 30
0.0
 10
18.456756
 20
12.746540
 30
0.0
 10
18.050356
 20
12.746540
 30
0.0
 10
18.050356
 20
13.528860
 30
0.0
 10
18.050356
 20
14.311180
 30
0.0
 10
18.050356
 20
15.093505
 30
0.0
 10
18.050356
 20
15.875825
 30
0.0
 10
17.349316
 20
15.875825
 30
0.0
 10
16.648276
 20
15.875825
 30
0.0
 10
15.947236
 20
15.875825
 30
0.0
 10
15.246196
 20
15.875825
 30
0.0
 10
15.246196
 20
15.093505
 30
0.0
 10
15.246196
 20
14.311180
 30
0.0
 10
15.246196
 20
13.528860
 30
0.0
 10
15.246196
 20
12.746540
 30
0.0
  0
LWPOLYLINE
  5
124
100
AcDbEntity
  8
Line3
 62
7
100
AcDbPolyline
 90
17
 70
0
 10
25.465993
 20
7.280460
 30
0.0
 10
25.523143
 20
8.845410
 30
0.0
 10
25.740313
 20
9.970320
 30
0.0
 10
26.186083
 20
10.649459
 30
0.0
 10
26.929033
 20
10.877100
 30
0.0
 10
27.683730
 20
10.649459
 30
0.0
 10
28.135532
 20
9.970320
 30
0.0
 10
28.354923
 20
8.845410
 30
0.0
 10
28.412392
 20
7.280460
 30
0.0
 10
28.354923
 20
5.715509
 30
0.0
 10
28.135532
 20
4.590600
 30
0.0
 10
27.683730
 20
3.911460
 30
0.0
 10
26.929033
 20
3.683820
 30
0.0
 10
26.186083
 20
3.911460
 30
0.0
 10
25.740313
 20
4.590600
 30
0.0
 10
25.523143
 20
5.715509
 30
0.0
 10
25.465993
 20
7.280460
 30
0.0
  0
LWPOLYLINE
  5
125
100
AcDbEntity
  8
Line3
 62
7
100
AcDbPolyline
 90
45
 70
0
 10
28.534312
 20
1.814380
 30
0.0
 10
29.204872
 20
1.814380
 30
0.0
 10
29.875432
 20
1.814380
 30
0.0
 10
30.545992
 20
1.814380
 30
0.0
 10
31.216552
 20
1.814380
 30
0.0
 10
31.216552
 20
5.441500
 30
0.0
 10
31.216552
 20
9.068620
 30
0.0
 10
31.216552
 20
12.695740
 30
0.0
 10
31.216552
 20
16.322865
 30
0.0
 10
30.515512
 20
16.322865
 30
0.0
 10
29.814472
 20
16.322865
 30
0.0
 10
29.113432
 20
16.322865
 30
0.0
 10
28.412392
 20
16.322865
 30
0.0
 10
28.412392
 20
15.174785
 30
0.0
 10
28.412392
 20
14.026700
 30
0.0
 10
28.412392
 20
12.878620
 30
0.0
 10
28.412392
 20
11.730540
 30
0.0
 10
28.402232
 20
11.730540
 30
0.0
 10
28.392072
 20
11.730540
 30
0.0
 10
28.381912
 20
11.730540
 30
0.0
 10
28.371752
 20
11.730540
 30
0.0
 10
27.903440
 20
12.302350
 30
0.0
 10
27.368452
 20
12.708440
 30
0.0
 10
26.745835
 20
12.950699
 30
0.0
 10
26.014633
 20
13.031020
 30
0.0
 10
24.522066
 20
12.703981
 30
0.0
 10
23.477173
 20
11.679740
 30
0.0
 10
22.862810
 20
9.893471
 30
0.0
 10
22.661833
 20
7.280460
 30
0.0
 10
22.862810
 20
4.667421
 30
0.0
 10
23.477173
 20
2.881180
 30
0.0
 10
24.522066
 20
1.856911
 30
0.0
 10
26.014633
 20
1.529900
 30
0.0
 10
26.779172
 20
1.612450
 30
0.0
 10
27.437032
 20
1.870260
 30
0.0
 10
28.003452
 20
2.318570
 30
0.0
 10
28.493672
 20
2.972620
 30
0.0
 10
28.503832
 20
2.972620
 30
0.0
 10
28.513992
 20
2.972620
 30
0.0
 10
28.524152
 20
2.972620
 30
0.0
 10
28.534312
 20
2.972620
 30
0.0
 10
28.534312
 20
2.683060
 30
0.0
 10
28.534312
 20
2.393500
 30
0.0
 10
28.534312
 20
2.103940
 30
0.0
 10
28.534312
 20
1.814380
 30
0.0
  0
LWPOLYLINE
  5
126
100
AcDbEntity
  8
Line3
 62
7
100
AcDbPolyline
 90
69
 70
0
 10
34.555241
 20
9.393740
 30
0.0
 10
34.555241
 20
9.469940
 30
0.0
 10
34.555241
 20
9.546140
 30
0.0
 10
34.555241
 20
9.622340
 30
0.0
 10
34.555241
 20
9.698540
 30
0.0
 10
34.638426
 20
10.280849
 30
0.0
 10
34.885441
 20
10.729780
 30
0.0
 10
35.292476
 20
11.018691
 30
0.0
 10
35.855721
 20
11.120940
 30
0.0
 10
36.453256
 20
11.028540
 30
0.0
 10
36.856481
 20
10.762800
 30
0.0
 10
37.084446
 20
10.340849
 30
0.0
 10
37.156201
 20
9.779820
 30
0.0
 10
37.098732
 20
9.302610
 30
0.0
 10
36.909821
 20
8.949240
 30
0.0
 10
36.564697
 20
8.691119
 30
0.0
 10
36.038601
 20
8.499660
 30
0.0
 10
35.642361
 20
8.392980
 30
0.0
 10
35.246121
 20
8.286300
 30
0.0
 10
34.849881
 20
8.179620
 30
0.0
 10
34.453641
 20
8.072940
 30
0.0
 10
33.207455
 20
7.605269
 30
0.0
 10
32.347981
 20
6.937560
 30
0.0
 10
31.850460
 20
5.984100
 30
0.0
 10
31.690121
 20
4.659180
 30
0.0
 10
31.828551
 20
3.553010
 30
0.0
 10
32.279401
 20
2.545900
 30
0.0
 10
33.096011
 20
1.813110
 30
0.0
 10
34.331721
 20
1.529900
 30
0.0
 10
35.241041
 20
1.592130
 30
0.0
 10
35.982721
 20
1.814380
 30
0.0
 10
36.594861
 20
2.249990
 30
0.0
 10
37.115561
 20
2.952300
 30
0.0
 10
37.125721
 20
2.952300
 30
0.0
 10
37.135881
 20
2.952300
 30
0.0
 10
37.146041
 20
2.952300
 30
0.0
 10
37.156201
 20
2.952300
 30
0.0
 10
37.218747
 20
2.668779
 30
0.0
 10
37.290821
 20
2.375720
 30
0.0
 10
37.381945
 20
2.086470
 30
0.0
 10
37.501641
 20
1.814380
 30
0.0
 10
38.172201
 20
1.814380
 30
0.0
 10
38.842761
 20
1.814380
 30
0.0
 10
39.513321
 20
1.814380
 30
0.0
 10
40.183881
 20
1.814380
 30
0.0
 10
40.009891
 20
2.267459
 30
0.0
 10
39.904481
 20
2.726240
 30
0.0
 10
39.852411
 20
3.257410
 30
0.0
 10
39.838441
 20
3.927660
 30
0.0
 10
39.838441
 20
5.365300
 30
0.0
 10
39.838441
 20
6.802940
 30
0.0
 10
39.838441
 20
8.240580
 30
0.0
 10
39.838441
 20
9.678220
 30
0.0
 10
39.687946
 20
11.033620
 30
0.0
 10
39.106921
 20
12.093760
 30
0.0
 10
37.901056
 20
12.784329
 30
0.0
 10
35.876041
 20
13.031020
 30
0.0
 10
34.384426
 20
12.858300
 30
0.0
 10
33.163321
 20
12.289340
 30
0.0
 10
32.338456
 20
11.247940
 30
0.0
 10
32.035561
 20
9.657900
 30
0.0
 10
32.035561
 20
9.591860
 30
0.0
 10
32.035561
 20
9.525820
 30
0.0
 10
32.035561
 20
9.459780
 30
0.0
 10
32.035561
 20
9.393740
 30
0.0
 10
32.665481
 20
9.393740
 30
0.0
 10
33.295401
 20
9.393740
 30
0.0
 10
33.925321
 20
9.393740
 30
0.0
 10
34.555241
 20
9.393740
 30
0.0
  0
LWPOLYLINE
  5
127
100
AcDbEntity
  8
Line3
 62
7
100
AcDbPolyline
 90
21
 70
0
 10
37.156201
 20
5.126540
 30
0.0
 10
36.992052
 20
4.357230
 30
0.0
 10
36.574541
 20
3.833680
 30
0.0
 10
36.016060
 20
3.534919
 30
0.0
 10
35.429001
 20
3.439980
 30
0.0
 10
34.946717
 20
3.560940
 30
0.0
 10
34.618741
 20
3.889560
 30
0.0
 10
34.431735
 20
4.374389
 30
0.0
 10
34.372361
 20
4.963980
 30
0.0
 10
34.459991
 20
5.617409
 30
0.0
 10
34.738121
 20
6.122220
 30
0.0
 10
35.229611
 20
6.489899
 30
0.0
 10
35.957321
 20
6.731820
 30
0.0
 10
36.236086
 20
6.811830
 30
0.0
 10
36.541521
 20
6.929940
 30
0.0
 10
36.854576
 20
7.086150
 30
0.0
 10
37.156201
 20
7.280460
 30
0.0
 10
37.156201
 20
6.741980
 30
0.0
 10
37.156201
 20
6.203500
 30
0.0
 10
37.156201
 20
5.665020
 30
0.0
 10
37.156201
 20
5.126540
 30
0.0
  0
LWPOLYLINE
  5
128
100
AcDbEntity
  8
Line3
 62
7
100
AcDbPolyline
 90
65
 70
0
 10
42.373855
 20
1.814380
 30
0.0
 10
43.186655
 20
1.814380
 30
0.0
 10
43.999455
 20
1.814380
 30
0.0
 10
44.812255
 20
1.814380
 30
0.0
 10
45.625055
 20
1.814380
 30
0.0
 10
45.965415
 20
3.754940
 30
0.0
 10
46.305775
 20
5.695500
 30
0.0
 10
46.646135
 20
7.636060
 30
0.0
 10
46.986495
 20
9.576620
 30
0.0
 10
46.996655
 20
9.576620
 30
0.0
 10
47.006815
 20
9.576620
 30
0.0
 10
47.016975
 20
9.576620
 30
0.0
 10
47.027135
 20
9.576620
 30
0.0
 10
47.387815
 20
7.636060
 30
0.0
 10
47.748495
 20
5.695500
 30
0.0
 10
48.109175
 20
3.754940
 30
0.0
 10
48.469855
 20
1.814380
 30
0.0
 10
49.267415
 20
1.814380
 30
0.0
 10
50.064975
 20
1.814380
 30
0.0
 10
50.862535
 20
1.814380
 30
0.0
 10
51.660095
 20
1.814380
 30
0.0
 10
52.249375
 20
4.547420
 30
0.0
 10
52.838655
 20
7.280460
 30
0.0
 10
53.427935
 20
10.013500
 30
0.0
 10
54.017215
 20
12.746540
 30
0.0
 10
53.346655
 20
12.746540
 30
0.0
 10
52.676095
 20
12.746540
 30
0.0
 10
52.005535
 20
12.746540
 30
0.0
 10
51.334975
 20
12.746540
 30
0.0
 10
51.004775
 20
10.805980
 30
0.0
 10
50.674575
 20
8.865420
 30
0.0
 10
50.344375
 20
6.924860
 30
0.0
 10
50.014175
 20
4.984300
 30
0.0
 10
50.004015
 20
4.984300
 30
0.0
 10
49.993855
 20
4.984300
 30
0.0
 10
49.983695
 20
4.984300
 30
0.0
 10
49.973535
 20
4.984300
 30
0.0
 10
49.612855
 20
6.924860
 30
0.0
 10
49.252175
 20
8.865420
 30
0.0
 10
48.891495
 20
10.805980
 30
0.0
 10
48.530815
 20
12.746540
 30
0.0
 10
47.768815
 20
12.746540
 30
0.0
 10
47.006815
 20
12.746540
 30
0.0
 10
46.244815
 20
12.746540
 30
0.0
 10
45.482815
 20
12.746540
 30
0.0
 10
45.142455
 20
10.805980
 30
0.0
 10
44.802095
 20
8.865420
 30
0.0
 10
44.461735
 20
6.924860
 30
0.0
 10
44.121375
 20
4.984300
 30
0.0
 10
44.111215
 20
4.984300
 30
0.0
 10
44.101055
 20
4.984300
 30
0.0
 10
44.090895
 20
4.984300
 30
0.0
 10
44.080735
 20
4.984300
 30
0.0
 10
43.760695
 20
6.924860
 30
0.0
 10
43.440655
 20
8.865420
 30
0.0
 10
43.120615
 20
10.805980
 30
0.0
 10
42.800575
 20
12.746540
 30
0.0
 10
42.099535
 20
12.746540
 30
0.0
 10
41.398495
 20
12.746540
 30
0.0
 10
40.697455
 20
12.746540
 30
0.0
 10
39.996415
 20
12.746540
 30
0.0
 10
40.590775
 20
10.013500
 30
0.0
 10
41.185135
 20
7.280460
 30
0.0
 10
41.779495
 20
4.547420
 30
0.0
 10
42.373855
 20
1.814380
 30
0.0
  0
LWPOLYLINE
  5
129
100
AcDbEntity
  8
Line3
 62
7
100
AcDbPolyline
 90
53
 70
0
 10
54.046287
 20
1.814380
 30
0.0
 10
54.747327
 20
1.814380
 30
0.0
 10
55.448367
 20
1.814380
 30
0.0
 10
56.149407
 20
1.814380
 30
0.0
 10
56.850447
 20
1.814380
 30
0.0
 10
56.850447
 20
3.627940
 30
0.0
 10
56.850447
 20
5.441500
 30
0.0
 10
56.850447
 20
7.255060
 30
0.0
 10
56.850447
 20
9.068620
 30
0.0
 10
56.947918
 20
9.865559
 30
0.0
 10
57.233987
 20
10.430060
 30
0.0
 10
57.699123
 20
10.765989
 30
0.0
 10
58.333807
 20
10.877100
 30
0.0
 10
58.872603
 20
10.793280
 30
0.0
 10
59.245667
 20
10.526580
 30
0.0
 10
59.462518
 20
10.054140
 30
0.0
 10
59.532687
 20
9.353100
 30
0.0
 10
59.532687
 20
7.468420
 30
0.0
 10
59.532687
 20
5.583740
 30
0.0
 10
59.532687
 20
3.699060
 30
0.0
 10
59.532687
 20
1.814380
 30
0.0
 10
60.233727
 20
1.814380
 30
0.0
 10
60.934767
 20
1.814380
 30
0.0
 10
61.635807
 20
1.814380
 30
0.0
 10
62.336847
 20
1.814380
 30
0.0
 10
62.336847
 20
3.841300
 30
0.0
 10
62.336847
 20
5.868220
 30
0.0
 10
62.336847
 20
7.895140
 30
0.0
 10
62.336847
 20
9.922060
 30
0.0
 10
62.147617
 20
11.316520
 30
0.0
 10
61.600247
 20
12.284260
 30
0.0
 10
60.725217
 20
12.848140
 30
0.0
 10
59.553007
 20
13.031020
 30
0.0
 10
58.703693
 20
12.937999
 30
0.0
 10
57.940107
 20
12.652560
 30
0.0
 10
57.287008
 20
12.165190
 30
0.0
 10
56.769167
 20
11.466380
 30
0.0
 10
56.759007
 20
11.466380
 30
0.0
 10
56.748847
 20
11.466380
 30
0.0
 10
56.738687
 20
11.466380
 30
0.0
 10
56.728527
 20
11.466380
 30
0.0
 10
56.728527
 20
11.786420
 30
0.0
 10
56.728527
 20
12.106460
 30
0.0
 10
56.728527
 20
12.426500
 30
0.0
 10
56.728527
 20
12.746540
 30
0.0
 10
56.057967
 20
12.746540
 30
0.0
 10
55.387407
 20
12.746540
 30
0.0
 10
54.716847
 20
12.746540
 30
0.0
 10
54.046287
 20
12.746540
 30
0.0
 10
54.046287
 20
10.013500
 30
0.0
 10
54.046287
 20
7.280460
 30
0.0
 10
54.046287
 20
4.547420
 30
0.0
 10
54.046287
 20
1.814380
 30
0.0
  0
ENDSEC
  0
SECTION
  2
OBJECTS
  0
DICTIONARY
  5
C
330
0
100
AcDbDictionary
  3
ACAD_GROUP
350
D
  3
ACAD_MLINESTYLE
350
17
  0
DICTIONARY
  5
D
330
C
100
AcDbDictionary
  0
DICTIONARY
  5
1A
330
C
100
AcDbDictionary
  0
DICTIONARY
  5
17
330
C
100
AcDbDictionary
  3
STANDARD
350
18
  0
DICTIONARY
  5
19
330
C
100
AcDbDictionary
  0
ENDSEC
  0
EOF
